<?xml version="1.0" encoding="UTF-8" standalone="no"?>
<svg
   xmlns:dc="http://purl.org/dc/elements/1.1/"
   xmlns:cc="http://creativecommons.org/ns#"
   xmlns:rdf="http://www.w3.org/1999/02/22-rdf-syntax-ns#"
   xmlns:svg="http://www.w3.org/2000/svg"
   xmlns="http://www.w3.org/2000/svg"
   xmlns:sodipodi="http://sodipodi.sourceforge.net/DTD/sodipodi-0.dtd"
   xmlns:inkscape="http://www.inkscape.org/namespaces/inkscape"
   width="128"
   height="128"
   style="enable-background:new 0 0 128 128;"
   version="1.1"
   id="svg901"
   sodipodi:docname="streamers_temp.svg"
   inkscape:version="1.0.1 (3bc2e813f5, 2020-09-07)"
   inkscape:export-filename="C:\Users\Tan\Downloads\streameR.png"
   inkscape:export-xdpi="600"
   inkscape:export-ydpi="600">
  <metadata
     id="metadata907">
    <rdf:RDF>
      <cc:Work
         rdf:about="">
        <dc:format>image/svg+xml</dc:format>
        <dc:type
           rdf:resource="http://purl.org/dc/dcmitype/StillImage" />
        <dc:title></dc:title>
      </cc:Work>
    </rdf:RDF>
  </metadata>
  <defs
     id="defs905">
    <linearGradient
       id="gradientFill-2"
       x1="301.02603"
       x2="703.06751"
       y1="151.40061"
       y2="553.44209"
       gradientUnits="userSpaceOnUse"
       spreadMethod="pad"
       gradientTransform="matrix(0.06973504,0,0,0.07115848,73.81174,39.517301)">
      <stop
         offset="0"
         stop-color="rgb(39,109,195)"
         stop-opacity="1"
         id="stop974" />
      <stop
         offset="1"
         stop-color="rgb(22,92,170)"
         stop-opacity="1"
         id="stop976" />
    </linearGradient>
    <linearGradient
       id="gradientFill-1"
       x1="0.74144253"
       x2="590.86259"
       y1="3.6658269"
       y2="593.78698"
       gradientUnits="userSpaceOnUse"
       spreadMethod="pad"
       gradientTransform="matrix(0.08607748,0,0,0.05764851,73.81174,39.517301)">
      <stop
         offset="0"
         stop-color="rgb(203,206,208)"
         stop-opacity="1"
         id="stop969" />
      <stop
         offset="1"
         stop-color="rgb(132,131,139)"
         stop-opacity="1"
         id="stop971" />
    </linearGradient>
  </defs>
  <sodipodi:namedview
     pagecolor="#ffffff"
     bordercolor="#666666"
     borderopacity="1"
     objecttolerance="10"
     gridtolerance="10"
     guidetolerance="10"
     inkscape:pageopacity="0"
     inkscape:pageshadow="2"
     inkscape:window-width="1398"
     inkscape:window-height="967"
     id="namedview903"
     showgrid="false"
     inkscape:zoom="3.1796875"
     inkscape:cx="30.040728"
     inkscape:cy="108.32159"
     inkscape:window-x="0"
     inkscape:window-y="0"
     inkscape:window-maximized="0"
     inkscape:current-layer="svg901" />
  <path
     d="m 57.809584,66.511524 c -0.52324,1.037163 -1.046167,2.082943 -1.543556,3.119169 l -0.417465,0.860753 -0.04059,0.0705 c 1.65293,2.036806 3.087438,4.236851 4.238824,6.48168 0.166677,0.313214 0.32505,0.635359 0.483424,0.957503 1.509011,-0.503431 3.03383,-0.808975 4.531056,-0.923687 -1.23734,-2.949262 -3.090574,-5.988355 -5.763704,-9.032221 -0.467793,-0.526636 -0.977737,-1.025858 -1.487993,-1.533697 z"
     style="fill:#fcc21b;stroke-width:0.862299"
     id="path871" />
  <path
     d="m 63.248989,89.439031 c -0.318842,0.01162 -0.645674,0.04068 -0.971883,0.08703 -1.579349,5.700432 -7.28079,8.375061 -13.426598,7.838667 C 39.199364,96.532698 30.118761,89.544992 26.830105,80.47476 26.160311,78.661152 25.887224,76.841781 25.74764,74.896767 25.393364,69.887735 26.163757,64.484132 31.112323,62.225113 l 0.05938,-0.02804 c 0.161228,-0.07487 0.323394,-0.123904 0.485247,-0.181547 -0.381621,-0.529762 -0.772797,-1.085065 -1.148927,-1.701313 -0.532002,-0.869454 -0.86768,-1.797802 -1.081779,-2.704673 -5.317683,2.073948 -8.428332,6.94981 -10.5391,12.272606 C 16.871659,74.977141 3.9916116,114.05764 3.9916116,114.05764 l -1.7254897,5.23979 c -0.589897,1.81616 -1.54140919,3.65406 -1.47045029,5.61021 0.0828375,2.28358 2.17310579,3.76955 4.44218219,3.04871 1.5182541,-0.48651 3.1784912,-1.34057 4.7157202,-2.01759 3.25167,-1.46403 9.274005,-4.33149 9.274005,-4.33149 l 25.19423,-11.45815 c 0,0 12.169469,-4.9111 17.179857,-9.98531 2.430296,-2.461041 4.322963,-5.946644 5.06269,-10.054835 -0.184402,-0.08822 -0.377735,-0.184757 -0.570129,-0.255437 -0.874549,-0.322051 -1.802542,-0.452332 -2.845238,-0.414507 z"
     style="fill:#fcc21b;stroke-width:0.862299"
     id="path873" />
  <path
     d="m 42.89946,57.716176 c 0.709487,1.242676 1.494163,2.655199 1.834623,4.428982 1.242416,0.472651 2.43688,1.050586 3.575085,1.742734 0.342765,-1.254961 0.703391,-2.493314 1.080315,-3.758143 -0.185028,-0.105464 -0.370681,-0.228156 -0.555395,-0.324999 -1.855768,-0.968122 -3.929958,-1.773004 -6.082195,-2.35071 0.05514,0.09291 0.101042,0.168907 0.147567,0.262136 z"
     style="fill:#fcc21b;stroke-width:0.862299"
     id="path875" />
  <path
     d="m 76.559746,101.54477 c -0.753688,-1.03398 -1.158576,-2.443025 -2.747154,-2.230085 -1.4941,0.20089 -2.778031,1.438215 -4.073037,2.132345 -0.838111,0.44458 -1.431675,1.20817 -1.570261,2.14509 -0.159749,1.06713 0.310368,1.89569 0.851613,2.78206 0.403858,0.66701 0.682206,1.44212 1.009757,2.14642 0.337107,0.72983 0.83513,1.37619 1.180541,2.09709 0.234189,0.50922 0.163687,0.46863 0.644205,0.63241 0.244411,0.0774 0.643308,0.13198 0.902141,0.13122 1.509594,-0.0119 3.091557,-1.59628 4.153448,-2.53219 0.853334,-0.7385 2.595014,-1.25037 2.365598,-2.57949 -0.165209,-0.9863 -0.889293,-1.91782 -1.394192,-2.75374 -0.421717,-0.68362 -0.868348,-1.34046 -1.322659,-1.97113 z"
     style="fill:#d7598b;stroke-width:0.862299"
     id="path881" />
  <path
     d="m 106.24043,115.09142 c -0.20289,-0.12206 -0.39528,-0.19274 -0.56857,-0.21234 -0.91937,-0.1306 -1.48257,0.9943 -2.18048,1.7358 -0.84003,0.86745 -1.85004,1.5685 -2.6097,2.51069 -0.81685,1.03056 -0.12081,1.90269 0.77754,2.40508 0.97747,0.54266 1.85684,1.23558 2.82663,1.8044 0.86419,0.51225 1.56246,0.97013 2.48049,0.35008 0.83374,-0.56522 1.27361,-1.52171 1.83115,-2.32714 1.03264,-1.50433 2.84254,-2.75211 0.96583,-4.29759 -1.04967,-0.86794 -2.37576,-1.26852 -3.52289,-1.96898 z"
     style="fill:#40c0e7;stroke-width:0.862299"
     id="path883" />
  <path
     d="m 116.12753,29.488519 c 0.0287,-0.397961 1.03393,-3.609774 0.69441,-3.692373 -0.77382,-0.16176 -1.5108,-0.497431 -2.29386,-0.676112 -0.90464,-0.200158 -1.83326,-0.347674 -2.68415,-0.730985 -1.02636,-0.463231 -1.63774,-0.190821 -2.03967,0.384622 -0.56583,0.814363 -0.70384,2.243099 -0.95664,3.123763 -0.19935,0.688896 -0.3091,1.469457 0.19098,1.934522 0.5712,0.522886 1.49589,0.799975 2.21957,1.006697 0.90683,0.26048 1.92519,0.741258 2.85037,0.793984 1.26314,0.09224 1.92849,-1.070882 2.01899,-2.144118 z"
     style="fill:#40c0e7;stroke-width:0.862299"
     id="path885" />
  <path
     d="m 51.296655,39.472782 c 1.138382,0.459168 2.234481,0.704153 3.392464,0.990036 0.40939,0.105951 0.675099,0.294771 1.089222,0.05541 0.532887,-0.295448 1.101403,-1.273853 1.38394,-1.81045 0.668037,-1.327162 1.147118,-2.630212 1.588603,-4.018183 0.240566,-0.742165 0.990222,-1.960114 0.76389,-2.728483 -0.196104,-0.648665 -1.158702,-1.019294 -1.703292,-1.284285 -0.728679,-0.344599 -1.427579,-0.81971 -2.163,-1.112292 -0.945363,-0.371254 -2.236669,-0.764475 -3.241592,-0.874708 -0.554635,-0.06617 -0.934288,0.171951 -1.223077,0.536202 -0.264189,0.328843 -0.455688,0.758595 -0.648436,1.153877 -0.970176,2.037043 -2.145061,5.091066 -2.018199,7.398946 0.05694,1.093776 1.938772,1.3534 2.779477,1.693936 z"
     style="fill:#40c0e7;stroke-width:0.862299"
     id="path887" />
  <path
     d="m 8.8209071,46.66516 c 0.6640753,0.942322 1.2560859,1.80097 2.0303109,2.687523 0.75574,0.852709 1.279031,1.0063 2.140045,0.241631 0.543872,-0.46842 1.168737,-0.844863 1.685506,-1.346814 0.492167,-0.466544 0.893785,-1.050604 1.385327,-1.534382 0.349736,-0.349205 1.052783,-0.711227 1.242719,-1.184064 0.260615,-0.665233 -0.354613,-1.212407 -0.734045,-1.681848 -0.469982,-0.586958 -0.838432,-1.22937 -1.351502,-1.814766 -0.656573,-0.735504 -1.363287,-1.426048 -2.09554,-2.107036 -0.598305,-0.556417 -1.328505,-1.418681 -1.999677,-1.843025 -0.17641,-0.105773 -0.377422,-0.17614 -0.585175,-0.194489 -0.7882408,-0.08358 -1.7026569,0.398282 -2.301358,0.782403 -0.8180627,0.52151 -1.6015207,1.283367 -2.3105488,1.956236 -1.1092181,1.058419 0.050868,2.35378 0.7580309,3.294538 0.7059115,0.906289 1.4625892,1.78485 2.135907,2.744093 z"
     style="fill:#d7598b;stroke-width:0.862299"
     id="path889" />
  <path
     d="m 8.1605633,20.897506 c 0.5998675,0.599504 1.3423011,1.323266 2.1651457,1.647192 0.726804,0.292895 1.436145,-0.371356 2.000689,-0.745611 0.63192,-0.419842 1.136633,-1.01627 1.59826,-1.611137 0.420103,-0.550216 0.993755,-1.149146 1.298706,-1.781472 0.35353,-0.720375 -0.173201,-0.968756 -0.714175,-1.371936 -0.64782,-0.49422 -1.304882,-1.005363 -1.861664,-1.606429 -0.754489,-0.81824 -1.51273,-1.739889 -2.307805,-2.487626 -0.268211,-0.25776 -0.580935,-0.315445 -0.9062052,-0.243245 -1.0192098,0.209546 -2.1820494,1.692714 -2.7680695,2.188549 -0.4691286,0.38805 -1.2898692,1.073601 -1.4141696,1.690745 -0.1559563,0.69595 0.2731278,1.344793 0.6387645,1.90965 0.5938864,0.910352 1.4828146,1.6288 2.2705231,2.41132 z"
     style="fill:#40c0e7;stroke-width:0.862299"
     id="path891" />
  <path
     d="m 33.863638,42.210352 c 1.33861,4.075943 -1.717219,7.370771 -1.920306,11.286922 -0.06246,1.132622 -0.02151,2.261491 0.20746,3.340397 0.146275,0.702245 0.369481,1.38444 0.745611,2.000689 0.495345,0.810383 1.056814,1.540709 1.576135,2.29845 0.509766,0.732203 0.968141,1.474898 1.292701,2.334619 0.716322,1.906837 0.331365,3.663791 0.125006,5.586841 -0.168721,1.533393 -0.892077,3.00062 -1.778985,4.240805 -0.27093,0.380861 -1.037914,0.883261 -0.82864,1.419275 0.02929,0.09386 0.202887,0.12207 0.452791,0.113005 1.034078,-0.03751 3.449961,-0.75504 3.797333,-0.931587 1.523922,-0.805974 2.373726,-2.355444 3.121996,-3.849462 1.110416,-2.214703 1.785455,-4.776018 1.35904,-7.254234 -0.08957,-0.566242 -0.264062,-1.09489 -0.4724,-1.605052 -0.633314,-1.521558 -1.639852,-2.865632 -2.239949,-4.422909 -0.07581,-0.18708 -0.151631,-0.374161 -0.210525,-0.570484 -0.904702,-3.056243 0.890005,-6.150007 2.403739,-8.664088 1.489756,-2.461438 1.956189,-6.016111 0.735906,-8.733016 -0.619384,-1.375377 -1.58346,-2.738248 -2.732294,-3.723385 -1.36284,-1.175833 -3.411,-2.214634 -3.263536,-4.334006 0.122999,-1.842367 1.293872,-3.817662 2.178145,-5.368383 0.437514,-0.783823 1.845567,-2.405317 1.761978,-3.282408 -0.0756,-0.894639 -1.341363,-1.297413 -1.955026,-1.801501 -1.387441,-1.140427 -2.489124,-2.015102 -4.232283,-2.495474 -0.313974,-0.09215 -0.574058,-0.125863 -0.815342,-0.117108 -1.111636,0.04032 -1.462842,1.062618 -2.043902,2.170907 -1.064652,2.0491 -2.108007,4.209599 -2.787557,6.408673 -1.284183,4.084799 -1.348633,8.254782 1.881903,11.916949 1.116376,1.279689 3.136632,2.500704 3.641001,4.035567 z"
     style="fill:#ed6c30;stroke-width:0.862299"
     id="path893" />
  <path
     d="m 49.102256,76.47423 c 0.22356,0.216235 0.425197,0.303837 0.606162,0.297272 0.336076,-0.01219 0.590708,-0.366574 0.791449,-0.779404 0.152476,-0.316162 0.27017,-0.639693 0.361388,-0.979519 0.507026,-1.959842 1.583422,-3.92308 2.466308,-5.749869 0.16078,-0.325093 0.321874,-0.641569 0.47435,-0.957732 0.610215,-1.256035 1.237665,-2.512694 1.891281,-3.761675 0.50788,-0.984833 1.015449,-1.978285 1.567667,-2.930212 1.444794,-2.51158 3.417924,-5.206269 5.970653,-6.670827 1.605407,-0.938361 3.434822,-1.41027 5.04916,-2.340325 1.834636,-1.041591 2.875583,-2.554853 4.02967,-4.279307 1.146095,-1.706907 1.700762,-3.78065 2.740323,-5.569978 0.438452,-0.75797 0.345756,-1.410387 1.145647,-1.957123 1.776993,-1.203444 3.971242,-0.894751 5.97363,-1.355678 4.732246,-1.0863 4.926613,-7.383648 8.739433,-9.791297 0.801453,-0.503649 1.62139,-0.973454 2.432712,-1.442946 0.473192,-0.276026 1.392297,-0.628627 1.711179,-1.114771 0.547978,-0.830972 -0.584871,-1.851204 -0.939212,-2.580416 -0.615008,-1.254733 -1.5147,-2.507767 -2.290311,-3.670387 -0.656707,-0.977103 -1.24104,-1.861916 -2.344057,-1.821904 l -0.214807,0.02505 c -2.481655,0.331625 -4.665225,1.506675 -6.190347,3.468933 -1.854498,2.397011 -1.982666,5.999815 -4.986935,7.385836 -1.951976,0.89916 -4.29915,0.656415 -6.136151,1.870664 -2.173879,1.442188 -2.791588,4.156738 -3.326385,6.540392 -0.402816,1.740346 -0.353334,3.818059 -1.61409,5.218493 -1.709212,1.882649 -4.398307,2.204542 -6.637958,3.260825 -0.602139,0.289331 -1.176551,0.629429 -1.687203,1.062128 -2.80428,2.379693 -4.306217,6.170388 -5.477529,9.560799 -0.475955,1.389223 -0.899268,2.802423 -1.313963,4.215309 -0.383665,1.316846 -0.758711,2.633379 -1.116211,3.957904 -0.182434,0.679653 -0.382102,1.359933 -0.564223,2.048204 -0.463763,1.725299 -0.882877,3.49212 -1.442368,5.195005 -0.391793,1.092796 -0.599224,2.748395 0.330738,3.646556 z"
     style="fill:#ed6c30;stroke-width:0.862299"
     id="path895" />
  <path
     d="m 105.96463,89.304617 c -0.16998,-0.166407 -0.40327,-0.175202 -0.63594,-0.166761 l -0.26683,0.01831 -0.1468,-0.0033 c -0.51829,-0.01571 -0.95729,-0.224136 -1.46334,-0.378351 -2.3299,-0.71795 -3.844767,-1.327404 -5.928159,-2.623787 -2.348162,-1.459351 -5.02865,-2.803103 -7.859821,-2.829832 l -0.327772,0.0033 c -2.792012,0.10128 -5.31514,1.66831 -8.11577,1.769902 l -0.01724,6.26e-4 c -3.102862,0.0953 -5.862875,-2.01352 -8.369275,-3.553416 -0.211817,-0.130376 -0.423323,-0.252134 -0.651749,-0.364648 -1.961051,-1.016075 -4.046401,-1.415005 -6.132731,-1.36521 -0.05171,0.0019 -0.11265,-0.01317 -0.164355,-0.01126 -1.439093,0.05221 -2.878677,0.32877 -4.277538,0.776433 -1.365018,0.429176 -2.680698,1.029138 -3.931366,1.75617 -1.783246,1.031097 -3.490362,2.257894 -5.037679,3.608322 -0.861639,0.747435 -1.8057,1.601405 -2.372964,2.614278 -0.30839,0.537536 -0.68397,2.55301 0.16379,2.850147 l 0.112958,0.02179 c 0.327458,-0.01188 0.849229,-0.375952 1.076582,-0.530888 1.819768,-1.213623 3.748257,-2.284505 5.818509,-3.015382 1.695155,-0.605098 3.481796,-1.066827 5.263082,-1.200472 0.146182,-0.01393 0.300981,-0.02817 0.447476,-0.0335 1.283981,-0.04657 2.566535,0.105358 3.824935,0.542915 0.01755,0.0079 0.0351,0.01598 0.05264,0.02397 1.75709,0.626555 3.247939,1.763229 4.720614,2.874677 2.164522,1.629958 4.513571,1.924407 6.891953,1.838131 1.852724,-0.0672 3.723174,-0.359404 5.558664,-0.425986 1.921663,-0.0697 3.79207,0.112673 5.543492,1.058694 1.426329,0.785241 2.724157,1.834002 3.843523,2.958266 1.235142,1.223615 2.79024,2.228523 4.58403,2.439571 0.762701,0.09319 1.454275,0.128454 2.221531,0.109199 l 0.0172,-6.28e-4 c 1.2926,-0.04683 1.72971,-1.555506 2.35368,-2.432374 0.85431,-1.187234 1.42662,-2.536808 2.20119,-3.781548 0.32531,-0.546778 1.61067,-1.982619 1.00344,-2.547341 z"
     style="fill:#ed6c30;stroke-width:0.862299"
     id="path897" />
  <path
     d="m 99.273635,73.748237 c -14.026928,0 -25.398074,-7.615542 -25.398074,-17.009776 0,-9.394297 11.371146,-17.009839 25.398074,-17.009839 14.026985,0 25.398065,7.615542 25.398065,17.009839 0,9.394234 -11.37108,17.009776 -25.398065,17.009776 z m 3.887605,-27.369352 c -10.661709,0 -19.304728,5.206313 -19.304728,11.628612 0,6.422309 8.643019,11.628621 19.304728,11.628621 10.66165,0 18.52979,-3.559434 18.52979,-11.628621 0,-8.066655 -7.86814,-11.628612 -18.52979,-11.628612 z"
     fill="url(#gradientFill-1)"
     fill-rule="evenodd"
     id="path981"
     style="fill:url(#gradientFill-1);stroke-width:0.070443" />
  <path
     d="m 112.55548,66.074367 c 0,0 1.53721,0.463872 2.43028,0.915763 0.30989,0.156796 0.84603,0.469706 1.23276,0.880547 0.37884,0.402358 0.56355,0.810085 0.56355,0.810085 l 6.05811,10.214269 -9.7916,0.0045 -4.57881,-8.598429 c 0,0 -0.93759,-1.610973 -1.51452,-2.078084 -0.48127,-0.389617 -0.68647,-0.528321 -1.16232,-0.528321 -0.33121,0 -2.32645,0 -2.32645,0 l 0.002,11.198624 -8.664518,0.0045 V 50.291296 h 17.399428 c 0,0 7.92486,0.142936 7.92486,7.682675 0,7.539748 -7.57263,8.100959 -7.57263,8.100959 z m -3.76871,-9.578579 -5.24541,-0.0036 -0.003,4.864099 5.24802,-8.95e-4 c 0,0 2.43028,-0.0072 2.43028,-2.474304 0,-2.516375 -2.43028,-2.384722 -2.43028,-2.384722 z"
     fill="url(#gradientFill-2)"
     fill-rule="evenodd"
     id="path983"
     style="fill:url(#gradientFill-2);stroke-width:0.070443" />
  <path
     d="m 105.6826,6.5859238 c -0.75369,-1.03398 -1.15858,-2.44302 -2.74716,-2.23008 -1.4941,0.20089 -2.77803,1.43821 -4.073032,2.13234 -0.838111,0.44458 -1.431675,1.2081701 -1.570261,2.1450901 -0.159749,1.06713 0.310368,1.8956901 0.851613,2.7820601 0.403858,0.66701 0.682206,1.44212 1.009757,2.14642 0.337107,0.72983 0.83513,1.37619 1.180543,2.09709 0.23419,0.50922 0.16368,0.46863 0.6442,0.632411 0.24441,0.0774 0.64331,0.13198 0.90214,0.13122 1.5096,-0.0119 3.09156,-1.596281 4.15345,-2.532191 0.85334,-0.7385 2.59502,-1.25037 2.3656,-2.57949 -0.16521,-0.9863 -0.88929,-1.9178201 -1.39419,-2.7537401 -0.42172,-0.68362 -0.86835,-1.3404601 -1.32266,-1.9711301 z"
     style="fill:#d7598b;stroke-width:0.862299"
     id="path881-0" />
  <path
     d="m 54.105202,3.4409631 c -0.753688,-1.03398 -1.158576,-2.44302499 -2.747154,-2.230085 -1.4941,0.20089 -2.778031,1.438215 -4.073037,2.132345 -0.838111,0.44458 -1.431675,1.20817 -1.570261,2.14509 -0.159749,1.06713 0.310368,1.89569 0.851613,2.78206 0.403858,0.66701 0.682206,1.44212 1.009757,2.1464199 0.337107,0.72983 0.83513,1.37619 1.180541,2.09709 0.234189,0.50922 0.163687,0.46863 0.644205,0.63241 0.244411,0.0774 0.643308,0.13198 0.902141,0.13122 1.509594,-0.0119 3.091557,-1.59628 4.153448,-2.53219 0.853334,-0.7385 2.595014,-1.2503699 2.365598,-2.5794899 -0.165209,-0.9863 -0.889293,-1.91782 -1.394192,-2.75374 -0.421717,-0.68362 -0.868348,-1.34046 -1.322659,-1.97113 z"
     style="fill:#d7598b;stroke-width:0.862299"
     id="path881-3" />
</svg>
