<?xml version="1.0" encoding="UTF-8" standalone="no"?>
<svg
   xmlns:dc="http://purl.org/dc/elements/1.1/"
   xmlns:cc="http://creativecommons.org/ns#"
   xmlns:rdf="http://www.w3.org/1999/02/22-rdf-syntax-ns#"
   xmlns:svg="http://www.w3.org/2000/svg"
   xmlns="http://www.w3.org/2000/svg"
   xmlns:sodipodi="http://sodipodi.sourceforge.net/DTD/sodipodi-0.dtd"
   xmlns:inkscape="http://www.inkscape.org/namespaces/inkscape"
   width="210mm"
   height="297mm"
   viewBox="0 0 210 297"
   version="1.1"
   id="svg8"
   inkscape:version="1.0.1 (3bc2e813f5, 2020-09-07)"
   sodipodi:docname="xaringanclub.svg">
  <defs
     id="defs2">
    <rect
       x="265.13137"
       y="308.96357"
       width="326.06882"
       height="269.94222"
       id="rect960" />
  </defs>
  <sodipodi:namedview
     id="base"
     pagecolor="#ffffff"
     bordercolor="#666666"
     borderopacity="1.0"
     inkscape:pageopacity="0.0"
     inkscape:pageshadow="2"
     inkscape:zoom="0.49497475"
     inkscape:cx="184.17133"
     inkscape:cy="407.71039"
     inkscape:document-units="mm"
     inkscape:current-layer="layer1"
     inkscape:document-rotation="0"
     showgrid="false"
     inkscape:snap-text-baseline="false"
     inkscape:window-width="1920"
     inkscape:window-height="1017"
     inkscape:window-x="-8"
     inkscape:window-y="-8"
     inkscape:window-maximized="1" />
  <metadata
     id="metadata5">
    <rdf:RDF>
      <cc:Work
         rdf:about="">
        <dc:format>image/svg+xml</dc:format>
        <dc:type
           rdf:resource="http://purl.org/dc/dcmitype/StillImage" />
        <dc:title></dc:title>
      </cc:Work>
    </rdf:RDF>
  </metadata>
  <g
     inkscape:label="Layer 1"
     inkscape:groupmode="layer"
     id="layer1">
    <path
       transform="matrix(0.95583529,0,0,0.90210135,-59.13824,-190.51414)"
       inkscape:export-ydpi="79.699997"
       inkscape:export-xdpi="79.699997"
       inkscape:randomized="0"
       inkscape:rounded="0"
       inkscape:flatsided="true"
       sodipodi:arg2="3.1415491"
       sodipodi:arg1="2.6179504"
       sodipodi:r2="85.672287"
       sodipodi:r1="120.00529"
       sodipodi:cy="409.28586"
       sodipodi:cx="170.52629"
       sodipodi:sides="6"
       id="path821"
       style="fill:#333333;fill-opacity:1;stroke:#e1288d;stroke-width:8.98185;stroke-linecap:round;stroke-linejoin:miter;stroke-miterlimit:4;stroke-dasharray:none;stroke-opacity:1;paint-order:normal"
       sodipodi:type="star"
       d="m 66.601273,469.29302 -0.0052,-120.00529 103.925015,-60.00716 103.93024,59.99813 0.005,120.00528 -103.92502,60.00717 z" />
    <path
       class="st4397"
       d="m 91.644194,141.19521 c 0,0 -0.0073,0.0169 -0.0073,0.0169 -0.01241,0.005 -0.01771,-0.005 -0.02692,-0.001 0,0 0.0073,-0.0169 0.0073,-0.0169 0.01241,-0.005 0.02182,-0.0106 0.02693,0.001 z"
       id="path59"
       style="fill:#fdfdfd;stroke-width:0.124927" />
    <path
       d="m 36.08405,151.40587 c 12.439746,-9.07516 25.688402,-17.28136 39.610533,-24.73838 13.944026,-7.46886 28.545867,-14.1652 43.679597,-20.24366 6.79374,-2.73309 13.68955,-2.85061 20.06472,-0.77308 6.51233,2.12218 12.44763,6.54408 17.13655,12.81102 5.74455,7.67033 10.81533,15.45222 15.14065,23.3695 4.3504,7.96307 7.92059,16.05064 10.60986,24.25774 2.44443,7.4935 2.90114,14.99194 1.09591,21.64918 -1.72046,6.34437 -5.47534,11.90284 -11.47048,15.95558 -26.2381,17.72649 -53.96716,32.69705 -83.187076,44.91154 -6.793986,2.83713 -13.777198,3.00181 -20.210039,0.89602 -6.546528,-2.13338 -12.49577,-6.60711 -17.072214,-12.97929 -5.249495,-7.32931 -10.058774,-14.94079 -14.35599,-22.85843 -4.29903,-7.9166 -8.085705,-16.09499 -11.293632,-24.55618 -2.758289,-7.26475 -3.174924,-14.53259 -1.408888,-21.07966 1.779983,-6.49523 5.703661,-12.26348 11.660502,-16.62194 z"
       id="path2"
       sodipodi:nodetypes="cccscccsccccscccc"
       style="fill:#e1288d;fill-opacity:1;stroke:#ffffff;stroke-width:1.2732" />
    <g
       id="g956"
       transform="rotate(-28.864021,104.09356,177.15651)">
      <path
         class="st11073"
         d="m 46.121033,155.68937 c 3.185299,-2.10648 6.372537,-4.11162 9.60139,-6.05668 6.116865,-3.6811 12.380094,-7.12158 18.833188,-10.16002 1.869483,-0.88598 3.738962,-1.77194 5.671453,-2.53741 5.878286,-2.31817 11.798269,-4.57627 17.977125,-5.98753 4.724961,-1.08035 9.479121,-1.67459 14.355111,-1.15586 3.73827,0.39771 7.4228,1.18166 11.04991,2.14915 7.70229,2.04842 15.11473,4.87271 22.31462,8.26865 8.34507,3.92234 16.47495,8.27449 24.34991,13.09769 0.40948,0.25695 0.41189,0.35745 0.0509,0.64794 -4.35523,3.54737 -8.98065,6.73473 -13.83577,9.56129 -4.75446,2.78418 -9.59342,5.38741 -14.62109,7.6494 -7.09956,3.17196 -14.39265,5.73917 -22.02792,7.33937 -3.00984,0.62304 -6.06317,1.08465 -9.13976,1.38452 -2.04433,0.19979 -4.07398,0.0949 -6.12569,-0.11051 -1.78792,-0.19018 -3.59492,-0.31923 -5.365134,-0.65168 -4.232217,-0.79418 -8.465867,-1.66944 -12.604935,-2.9114 -12.376589,-3.72666 -23.854618,-9.31504 -34.669527,-16.33498 -1.991157,-1.32198 -3.942499,-2.68521 -5.815399,-4.19188 z M 107.8227,133.549 c -2.33072,0.0629 -3.8679,0.2738 -6.14651,0.96455 -5.020828,1.53191 -8.95928,4.58497 -11.799637,8.91558 -3.037831,4.61812 -3.937612,9.72416 -2.824278,15.13795 1.135419,5.51473 4.194803,9.79782 8.734854,12.9993 4.560631,3.22138 9.711261,4.34349 15.235391,3.7147 3.05557,-0.34002 5.93706,-1.32568 8.58442,-2.91539 3.79083,-2.25953 6.65353,-5.37393 8.50618,-9.38225 1.61798,-3.53764 2.15765,-7.27852 1.64057,-11.14194 -0.33002,-2.50826 -1.10325,-4.86645 -2.31988,-7.0746 -1.57315,-2.85042 -3.68496,-5.22459 -6.33561,-7.12247 -3.98489,-2.78589 -8.40992,-4.14425 -13.2755,-4.09543 z m 18.08623,39.69452 c 0.20187,-0.0444 0.28274,-0.0661 0.38365,-0.0882 2.09735,-0.62656 4.17285,-1.33383 6.22741,-2.08128 7.95603,-2.9038 15.42763,-6.79227 22.73001,-11.06294 3.04942,-1.77956 5.95323,-3.75923 8.83524,-5.81956 0.30023,-0.20823 0.23846,-0.26796 -0.0305,-0.44557 -5.2275,-3.08741 -10.59189,-5.90875 -16.03553,-8.62724 -6.44614,-3.20704 -13.10671,-5.94377 -19.9603,-8.1497 -0.63249,-0.21146 -1.26451,-0.40269 -1.91698,-0.59336 -0.0219,0.0204 -0.0381,0.0614 -0.0592,0.0823 5.20193,5.01425 8.05123,11.1058 8.02236,18.36548 -0.008,7.27963 -2.8976,13.35496 -8.19816,18.42019 z M 90.084695,137.09889 c -0.08278,-0.0377 -0.161934,0.003 -0.242875,0.0245 -2.841715,0.9444 -5.619616,2.04982 -8.376876,3.17515 -6.781881,2.80116 -13.268854,6.20519 -19.609371,9.84986 -3.050209,1.73903 -6.037653,3.57827 -9.024794,5.43781 -0.300533,0.188 -0.319628,0.26948 -0.01369,0.46661 1.046105,0.67077 2.073784,1.40151 3.140137,2.05105 4.020258,2.50127 8.158331,4.79772 12.414378,6.88919 5.525087,2.73728 11.20563,5.10671 17.080262,7.00623 1.856104,0.59449 3.731752,1.14806 5.62655,1.64046 0.101612,0.0182 0.186229,0.19943 0.2846,0.0354 0.05836,-0.12283 -0.08503,-0.20121 -0.167182,-0.28086 -0.309434,-0.29851 -0.639187,-0.57623 -0.948777,-0.87475 -4.563826,-4.49877 -7.158013,-9.94616 -7.539147,-16.34669 -0.231997,-3.80781 0.308399,-7.48787 1.947151,-11.00561 1.366067,-2.90442 3.040589,-5.57119 5.289787,-7.86326 0.03827,-0.0414 0.140299,-0.0837 0.138006,-0.20533 z m 35.978775,-0.70155 c 0,0 -0.0234,-0.018 -0.0234,-0.018 0,0 -0.022,0.0205 -0.022,0.0205 0.0212,0.002 0.0235,0.018 0.0396,0.0186 0,0 3.2e-4,-0.0205 3.2e-4,-0.0205 z"
         id="path55"
         style="fill:#ffffff;stroke-width:0.202736" />
      <path
         class="st11073"
         d="m 99.676487,142.66107 c 0.227323,-1.99131 1.006173,-3.72916 2.357733,-5.21394 0.15865,-0.18541 0.31777,-0.37085 0.47638,-0.55625 0.0597,-0.062 0.14013,-0.10394 0.2421,-0.0653 0.10252,0.059 0.0416,0.1411 0.0263,0.22256 -0.1327,0.50937 -0.51068,0.90159 -0.64324,1.4109 -0.13269,0.50937 -0.28527,1.0191 -0.43849,1.52885 -0.0757,0.30552 0.0682,0.40429 0.35046,0.31804 0.80632,-0.25818 1.55927,-0.10978 2.25665,0.32353 0.2663,0.15723 0.50944,0.15288 0.81302,0.1067 1.79887,-0.31693 3.62278,-0.37068 5.45307,-0.0801 3.1932,0.52936 5.93656,1.95919 8.18923,4.26993 2.00492,2.072 3.24667,4.54324 3.70458,7.39385 9.3e-4,0.0404 0.0238,0.0806 0.0245,0.12123 -0.14115,1.13812 0.8586,1.48475 1.49744,2.04077 1.58644,1.36997 2.61133,3.07467 3.13505,5.09276 0.0241,0.10076 0.0854,0.22136 -0.0342,0.26423 -0.16087,0.0637 -0.22465,-0.077 -0.30775,-0.19687 -0.54159,-0.78084 -1.14314,-1.52004 -1.82436,-2.17666 -0.39179,-0.35791 -0.43208,-0.3368 -0.60549,0.15303 -0.32664,0.9793 -1.06628,1.56065 -2.03517,1.80149 -0.44393,0.10954 -0.66333,0.31635 -0.85859,0.72547 -1.91235,4.07022 -5.04673,6.74354 -9.38393,7.95871 -3.34884,0.93347 -6.6378,0.70999 -9.86583,-0.60954 -0.0828,-0.0377 -0.16345,-0.0571 -0.20439,-0.0767 -0.16236,-0.017 -0.24293,0.0247 -0.32298,0.087 -0.71742,0.68233 -1.62739,0.82071 -2.536918,0.97936 -1.617497,0.25274 -3.201531,0.11966 -4.772031,-0.37872 -0.285761,-0.0961 -0.511086,-0.23365 -0.777282,-0.37115 -0.08278,-0.0377 -0.204707,-0.0971 -0.166105,-0.21995 0.03676,-0.12206 0.160548,-0.0842 0.262119,-0.0656 1.038657,0.24452 2.088936,0.0225 3.120871,-0.098 0.36436,-0.0473 0.320395,-0.22891 0.153418,-0.46923 -0.665041,-0.87998 -0.682549,-1.83266 -0.294979,-2.81307 0.115868,-0.32653 0.112145,-0.52924 -0.116164,-0.80896 -1.452077,-1.77796 -2.421702,-3.78787 -2.848563,-6.05105 -0.382114,-2.04096 -0.35869,-4.06907 0.172526,-6.06598 0.549469,-2.09862 1.528701,-3.98208 2.958378,-5.63051 m 11.07225,-4.36017 c -0.70907,0.0331 -1.37689,0.10642 -2.04431,0.19979 -0.50537,0.0702 -0.52557,0.0907 -0.29419,0.53258 0.58806,1.10445 0.41126,2.50681 -0.4031,3.45451 -1.58882,1.81353 -4.53843,1.29998 -5.411191,-0.95501 -0.106861,-0.30218 -0.190001,-0.40205 -0.489426,-0.15322 -0.839061,0.68454 -1.616211,1.42879 -2.269477,2.29242 -2.079944,2.67423 -2.997428,5.71234 -2.752797,9.09409 0.190213,2.63252 1.165525,4.94648 2.724868,7.04691 0.228759,0.29996 0.3918,0.35788 0.731938,0.10818 1.099631,-0.85155 2.661125,-0.83967 3.791665,-0.009 1.10988,0.81093 1.60326,2.28214 1.09966,3.56883 -0.17438,0.44931 -0.0499,0.58895 0.33825,0.74404 2.63384,0.98582 5.33538,1.24027 8.08208,0.64233 4.4633,-0.97419 7.74216,-3.50817 9.77542,-7.62122 0.17625,-0.3479 0.13306,-0.4891 -0.25477,-0.62391 -1.489,-0.47961 -2.39009,-2.06489 -2.0734,-3.59148 0.29768,-1.4654 1.51539,-2.50163 3.03564,-2.52955 0.38516,-0.007 0.48346,-0.17113 0.41684,-0.49433 -0.0895,-0.44441 -0.13859,-0.9099 -0.24813,-1.35395 -0.65669,-2.6644 -2.03627,-4.91005 -4.0776,-6.75831 -2.80255,-2.4426 -6.06701,-3.53843 -9.67728,-3.59376 z"
         id="path61"
         style="fill:#ffffff;stroke-width:0.202736" />
      <path
         class="st11073"
         d="m 112.54734,154.53002 c 0.0224,2.43281 -1.94684,4.39535 -4.44051,4.42081 -2.45306,0.025 -4.51656,-1.92455 -4.53989,-4.29643 -0.0217,-2.3923 1.98749,-4.39602 4.48112,-4.4216 2.41248,-0.0242 4.47636,1.94559 4.49928,4.29722 z"
         id="path63"
         style="fill:#ffffff;stroke-width:0.202736" />
    </g>
    <text
       xml:space="preserve"
       style="font-size:29.9861px;line-height:1.25;font-family:FightThis;-inkscape-font-specification:FightThis;fill:#ffffff;fill-opacity:1;stroke-width:0.758499"
       x="-42.906975"
       y="233.57123"
       id="text12"
       transform="rotate(-29.399581)"><tspan
         sodipodi:role="line"
         x="-42.906975"
         y="233.57123"
         style="font-size:29.9861px;fill:#ffffff;fill-opacity:1;stroke-width:0.758499"
         id="tspan18">xaringan</tspan></text>
    <text
       xml:space="preserve"
       style="font-size:29.9861px;line-height:1.25;font-family:FightThis;-inkscape-font-specification:FightThis;fill:#ffffff;fill-opacity:1;stroke-width:0.752252"
       x="-25.014189"
       y="258.35925"
       id="text24"
       transform="rotate(-29.216418)"><tspan
         sodipodi:role="line"
         id="tspan22"
         x="-25.014189"
         y="258.35925"
         style="font-size:29.9861px;fill:#ffffff;fill-opacity:1;stroke-width:0.752252">club</tspan></text>
    <text
       xml:space="preserve"
       id="text958"
       style="line-height:1.25;font-family:FightThis;font-size:10.58333333px;-inkscape-font-specification:FightThis;white-space:pre;shape-inside:url(#rect960);" />
  </g>
</svg>
