<?xml version="1.0" encoding="UTF-8" standalone="no"?>
<svg
   xmlns:dc="http://purl.org/dc/elements/1.1/"
   xmlns:cc="http://creativecommons.org/ns#"
   xmlns:rdf="http://www.w3.org/1999/02/22-rdf-syntax-ns#"
   xmlns:svg="http://www.w3.org/2000/svg"
   xmlns="http://www.w3.org/2000/svg"
   xmlns:sodipodi="http://sodipodi.sourceforge.net/DTD/sodipodi-0.dtd"
   xmlns:inkscape="http://www.inkscape.org/namespaces/inkscape"
   width="207.26576mm"
   height="239.83647mm"
   viewBox="0 0 207.26576 239.83647"
   version="1.1"
   id="svg1467"
   sodipodi:docname="crystal_ball.svg"
   inkscape:export-filename="C:\Users\Tan\Documents\GitHub\_dynastyprocess\graphics\packages\ffsimulator_v2.png"
   inkscape:export-xdpi="53.799992"
   inkscape:export-ydpi="53.799992"
   inkscape:version="1.0.1 (3bc2e813f5, 2020-09-07)">
  <defs
     id="defs1461" />
  <sodipodi:namedview
     id="base"
     pagecolor="#ffffff"
     bordercolor="#666666"
     borderopacity="1.0"
     inkscape:pageopacity="0.0"
     inkscape:pageshadow="2"
     inkscape:zoom="0.45567307"
     inkscape:cx="339.42158"
     inkscape:cy="612.23313"
     inkscape:document-units="mm"
     inkscape:current-layer="layer1"
     inkscape:document-rotation="0"
     showgrid="false"
     inkscape:window-width="1920"
     inkscape:window-height="1017"
     inkscape:window-x="-8"
     inkscape:window-y="-8"
     inkscape:window-maximized="1" />
  <metadata
     id="metadata1464">
    <rdf:RDF>
      <cc:Work
         rdf:about="">
        <dc:format>image/svg+xml</dc:format>
        <dc:type
           rdf:resource="http://purl.org/dc/dcmitype/StillImage" />
        <dc:title />
      </cc:Work>
    </rdf:RDF>
  </metadata>
  <g
     inkscape:label="Layer 1"
     inkscape:groupmode="layer"
     id="layer1"
     transform="translate(-4.6428166,-49.996627)">
    <path
       transform="matrix(-0.95583528,0,0,0.95788252,52.844026,-224.59637)"
       inkscape:export-ydpi="53.799995"
       inkscape:export-xdpi="53.799995"
       inkscape:randomized="0"
       inkscape:rounded="0"
       inkscape:flatsided="true"
       sodipodi:arg2="3.1415491"
       sodipodi:arg1="2.6179504"
       sodipodi:r2="85.672287"
       sodipodi:r1="120.00529"
       sodipodi:cy="409.28586"
       sodipodi:cx="170.52629"
       sodipodi:sides="6"
       id="path821-9"
       style="fill:#333333;fill-opacity:1;stroke:#d31027;stroke-width:8.98185;stroke-linecap:round;stroke-linejoin:miter;stroke-miterlimit:4;stroke-dasharray:none;stroke-opacity:1;paint-order:normal"
       sodipodi:type="star"
       d="m 66.601273,469.29302 -0.0052,-120.00529 103.925015,-60.00716 103.93024,59.99813 0.005,120.00528 -103.92502,60.00717 z" />
    <path
       d="m -298.08743,232.77779 -11.13102,-17.8779 -49.78929,0.5715 -11.84805,18.08692 a 3.1046208,3.1046208 0 0 0 4.02167,4.46088 c 6.96913,-3.59305 31.93785,-14.08113 64.02123,0.16139 a 3.7515271,3.7515271 0 0 0 4.72546,-5.40279 z"
       fill="#535a63"
       id="path2"
       style="stroke-width:0.264583;fill:#808080;fill-opacity:1" />
    <path
       d="m -310.06247,131.36565 -14.00705,-6.07484 a 49.578683,49.578683 0 0 0 -10.4775,-1.18533 c -24.43427,0 -44.24362,19.85698 -44.24362,44.3521 0,15.86177 7.7814,29.80531 20.26179,37.64492 v 0.003 a 5.1329167,5.1329167 0 0 1 1.90765,-0.36512 h 44.14837 a 5.1509083,5.1509083 0 0 1 1.73302,0.29898 c 12.57036,-7.81315 20.43642,-21.64821 20.43642,-37.58142 0,-15.23735 -8.08567,-29.10681 -19.75908,-37.09193 z"
       fill="#8fc2ff"
       id="path4"
       style="stroke-width:0.264583;fill:#e6e6e6;fill-opacity:1" />
    <path
       d="m -301.46352,127.35986 a 0.1143,0.1143 0 0 1 0.0106,0.22754 c -3.81529,0.6985 -6.58547,2.07962 -8.60954,3.77825 -4.39208,3.67771 -5.27843,8.8556 -5.72823,11.85333 a 0.3032125,0.3032125 0 0 1 -0.59002,0.0185 c -0.92339,-4.28096 -4.10104,-13.02808 -14.77168,-14.49387 a 0.11482917,0.11482917 0 0 1 -0.008,-0.22755 17.241308,17.241308 0 0 0 7.09083,-3.22527 c 4.69636,-3.6777 6.12246,-9.15987 6.55373,-12.28725 a 0.2936875,0.2936875 0 0 1 0.27252,-0.24606 h 0.0238 a 0.29501042,0.29501042 0 0 1 0.29369,0.21961 c 0.98425,4.318 3.24379,13.11275 15.46225,14.38275 z"
       fill="#ff7171"
       id="path6"
       style="stroke-width:0.264583;fill:#d31027;fill-opacity:1" />
    <path
       d="m -326.57512,157.78959 v 0.005 a 0.20611042,0.20611042 0 0 1 -0.15875,0.20637 c -2.9845,0.56621 -9.06462,1.89442 -10.26054,10.26319 a 0.079375,0.079375 0 0 1 -0.15875,0 c -1.19592,-8.36878 -7.33425,-9.69434 -10.31611,-10.26055 a 0.21007917,0.21007917 0 0 1 0,-0.40746 c 2.95805,-0.52387 9.03288,-2.48444 10.3214,-9.78165 a 0.079375,0.079375 0 0 1 0.1561,0 c 1.28323,7.29721 7.29986,9.25513 10.25525,9.779 a 0.20452292,0.20452292 0 0 1 0.1614,0.1958 z"
       fill="#ff7171"
       id="path8"
       style="stroke-width:0.264583;fill:#d31027;fill-opacity:1" />
    <path
       d="m -350.254,215.37085 -8.75374,0.10054 -11.84805,18.08692 a 3.1046208,3.1046208 0 0 0 4.02167,4.46088 c 0.90461,-0.46646 2.11667,-1.04961 3.6031,-1.67931 a 3.1030333,3.1030333 0 0 1 0.31273,-2.78157 z"
       fill="#373c42"
       id="path10"
       style="stroke-width:0.264583;fill:#4d4d4d;fill-opacity:1" />
    <path
       d="m -358.56589,206.1025 v 0.003 a 5.1001083,5.1001083 0 0 1 1.94469,-0.30956 h 5.47317 c -12.1539,-7.9375 -19.70511,-21.6871 -19.70511,-37.31022 0,-23.14892 17.69295,-42.16585 40.26059,-44.18541 -1.3425,-0.11774 -2.67864,-0.18785 -3.95447,-0.18785 -24.43427,0 -44.26214,19.85353 -44.26214,44.34866 0,15.86203 7.80785,29.80213 20.24327,37.64174 z"
       fill="#7aa7d3"
       id="path12"
       style="stroke-width:0.264583;fill:#818181;fill-opacity:1" />
    <path
       d="m -310.73981,206.039 a 5.159375,5.159375 0 0 1 1.91294,8.50635 c -0.12435,0.12436 -0.25665,0.24342 -0.39158,0.35454 a 5.1440292,5.1440292 0 0 1 -3.25438,1.15623 h -44.14837 a 5.159375,5.159375 0 1 1 0,-10.3161 h 44.14837 a 5.1509083,5.1509083 0 0 1 1.73302,0.29898 z"
       fill="#8dd85b"
       id="path14"
       style="stroke-width:0.264583;fill:#d31027;fill-opacity:1" />
    <path
       d="m -353.84043,210.89675 a 5.0694167,5.0694167 0 0 1 5.15673,-5.10117 h -7.9375 a 5.0874083,5.0874083 0 0 0 -5.15673,5.10805 5.2204937,5.2204937 0 0 0 5.15673,5.2107 h 7.9375 a 5.2294896,5.2294896 0 0 1 -5.15673,-5.21758 z"
       fill="#6aa047"
       id="path16"
       style="stroke-width:0.264583;fill:#790916;fill-opacity:1" />
    <path
       d="m -47.636854,172.78559 a 63.568517,63.568517 0 0 1 -17.38036,31.64159 1.9022998,1.9022998 0 1 0 2.67654,2.7038 67.724725,67.724725 0 0 0 16.16954,-70.48306 1.9023167,1.9023167 0 0 0 -3.58805,1.26535 63.734968,63.734968 0 0 1 2.12233,34.87232 z"
       id="path18"
       style="fill:#d31027;fill-opacity:1;stroke-width:0.31705" />
    <path
       d="m -169.89163,147.81442 a 1.9000804,1.9000804 0 0 0 2.28276,-1.4207 63.754308,63.754308 0 0 1 48.62088,-47.787989 1.902368,1.902368 0 0 0 -0.7958,-3.72058 67.558274,67.558274 0 0 0 -51.52854,50.644609 1.9022998,1.9022998 0 0 0 1.4207,2.28466 z"
       id="path20"
       style="fill:#d31027;fill-opacity:1;stroke-width:0.31705" />
    <path
       d="m -161.8373,159.04877 c 0,18.35307 8.46524,35.00232 22.77878,45.11906 a 8.0692385,8.0692385 0 0 0 0.23747,11.69915 l -13.19689,20.14947 a 5.6231981,5.6231981 0 0 0 7.28137,8.07844 c 8.08889,-4.17048 37.40841,-16.47963 75.073626,0.24095 a 6.4551372,6.4551372 0 0 0 2.62073,0.55643 6.3920442,6.3920442 0 0 0 5.42821,-9.77497 l -12.55169,-20.15899 a 8.0628975,8.0628975 0 0 0 -0.73682,-10.90842 c 14.39343,-10.10248 22.90337,-26.70195 22.90337,-45.00112 0,-17.15906 -8.49313,-33.93925 -22.32032,-44.43519 a 21.813037,21.813037 0 0 1 7.40122,-2.66861 2.0398994,2.0398994 0 0 0 -0.15853,-4.03763 c -13.60144,-1.41372 -15.81096,-11.106256 -16.87276,-15.763403 a 2.2669072,2.2669072 0 0 0 -2.38866,-1.736482 2.2405921,2.2405921 0 0 0 -2.05828,1.929883 c -0.49904,3.610565 -2.00978,9.056532 -6.4748,12.931832 a 61.423357,61.423357 0 0 0 -12.047896,-1.27169 c -30.28176,0 -54.91813,24.69598 -54.91813,55.05129 z m 96.993516,78.07894 a 2.5814208,2.5814208 0 0 1 -0.6341,3.43714 2.6153451,2.6153451 0 0 1 -2.64103,0.29327 c -39.212416,-17.40604 -69.891756,-4.51194 -78.360486,-0.14521 a 1.8185986,1.8185986 0 0 1 -2.35536,-2.61249 l 13.35636,-20.39202 a 8.0701897,8.0701897 0 0 0 2.10965,0.28091 h 52.900426 a 8.034363,8.034363 0 0 0 3.27449,-0.69561 z M -137.64829,209.9039 a 4.2842961,4.2842961 0 0 1 4.28018,-4.28017 h 52.899786 a 4.280175,4.280175 0 0 1 0,8.56035 h -52.900426 a 4.2842961,4.2842961 0 0 1 -4.27954,-4.28018 z M -86.011944,98.519811 c 1.70161,4.209159 4.99449,9.155449 11.8954,11.686779 -6.68976,3.07538 -9.60154,8.30164 -10.98198,12.6579 -1.88676,-4.264 -5.36258,-9.19159 -11.70675,-11.7727 6.13618,-3.05097 9.23313,-8.20113 10.79333,-12.571979 z m -20.906586,9.282269 a 55.697435,55.697435 0 0 1 7.059116,0.48382 21.088895,21.088895 0 0 1 -3.404166,1.04088 2.0402165,2.0402165 0 0 0 0.15567,4.01734 c 11.361486,1.55956 14.962536,10.62117 16.097896,15.8842 a 2.2377386,2.2377386 0 0 0 2.20286,1.76977 h 0.006 a 2.2681754,2.2681754 0 0 0 2.23901,-1.91118 c 0.45275,-3.01704 1.22033,-8.0984 5.13621,-12.04789 13.37253,9.73945 21.62217,25.69468 21.62217,42.00975 0,17.71802 -8.54449,33.71351 -22.89322,42.96915 a 8.0698726,8.0698726 0 0 0 -1.77073,-0.19784 h -52.901036 a 8.0816035,8.0816035 0 0 0 -2.00597,0.25364 c -14.20225,-9.27752 -22.65798,-25.28918 -22.65798,-43.02368 0,-28.25866 22.92969,-51.24796 51.11417,-51.24796 z"
       id="path22"
       style="fill:#d31027;fill-opacity:1;stroke-width:0.31705" />
    <path
       d="m -146.35162,147.39401 a 1.9022998,1.9022998 0 0 0 2.46094,-1.08653 c 0.36048,-0.9299 0.76282,-1.85886 1.19623,-2.7615 a 1.9023447,1.9023447 0 0 0 -3.42985,-1.64676 c -0.47557,0.9911 -0.91944,2.012 -1.31385,3.03353 a 1.9022998,1.9022998 0 0 0 1.08653,2.46126 z"
       id="path24"
       style="fill:#d31027;fill-opacity:1;stroke-width:0.31705" />
    <path
       d="m -144.01719,181.52254 a 1.9024114,1.9024114 0 1 0 3.20855,-2.04497 36.574883,36.574883 0 0 1 -5.22308,-25.11385 1.9022998,1.9022998 0 1 0 -3.76212,-0.56561 40.378532,40.378532 0 0 0 5.77665,27.72443 z"
       id="path26"
       style="fill:#d31027;fill-opacity:1;stroke-width:0.31705" />
    <path
       d="m -106.97632,319.2404 c 3.10455,0.58813 9.564762,1.81162 10.835182,10.6979 a 1.9856839,1.9856839 0 0 0 1.9768,1.71841 1.9850498,1.9850498 0 0 0 1.97744,-1.72095 c 1.27233,-8.89864 7.68498,-10.11389 10.76797,-10.70043 a 2.1559397,2.1559397 0 0 0 1.73458,-2.20096 2.1289905,2.1289905 0 0 0 -1.76089,-2.02912 c -3.45331,-0.61254 -9.44175,-2.74851 -10.748,-10.17731 a 1.9974147,1.9974147 0 0 0 -1.96571,-1.65626 1.9974147,1.9974147 0 0 0 -1.96571,1.65468 c -1.30941,7.41897 -7.344142,9.56381 -10.826622,10.18238 a 2.1299416,2.1299416 0 0 0 -1.75836,2.02468 2.1559397,2.1559397 0 0 0 1.73332,2.20698 z m 12.811032,-8.56605 a 15.272614,15.272614 0 0 0 6.79629,6.36921 13.889642,13.889642 0 0 0 -6.79914,6.45831 13.934029,13.934029 0 0 0 -6.839402,-6.45514 15.342365,15.342365 0 0 0 6.842252,-6.37238 z"
       id="path28"
       style="fill:#d31027;fill-opacity:1;stroke-width:0.31705" />
    <g
       inkscape:export-ydpi="53.799995"
       inkscape:export-xdpi="53.799995"
       style="fill:#d31027;fill-opacity:1;stroke:#000000;stroke-width:3.50768"
       id="g14-39-6"
       transform="matrix(0.03805321,0.01471653,-0.01466592,0.03850288,-117.7742,133.39215)">
      <g
         style="fill:#d31027;fill-opacity:1;stroke:#000000;stroke-width:3.50768"
         id="g12-2-9"
         transform="matrix(0.0997661,-0.00658435,-0.00663306,-0.09979668,1.9631403,544.88388)">
        <path
           style="fill:#d31027;fill-opacity:1;stroke:#000000;stroke-width:3.50768"
           id="path4-6"
           d="m 7412.9,5004.9 c -120.7,-7.7 -291.2,-19.2 -377.5,-26.8 l -157.1,-15.3 306.6,-183.9 c 1086.4,-659.1 1904.5,-1454.2 2513.8,-2452.4 130.3,-212.7 143.7,-229.9 153.3,-182 5.7,30.6 23,264.4 34.5,523.1 32.6,620.8 3.8,1444.6 -55.6,1609.4 -65.1,187.8 -120.7,274 -260.6,413.8 -233.7,233.7 -387,291.2 -854.5,314.2 -377.5,21 -971.5,19.1 -1302.9,-0.1 z"
           inkscape:connector-curvature="0" />
        <path
           style="fill:#d31027;fill-opacity:1;stroke:#000000;stroke-width:3.50768"
           id="path6-4"
           d="M 5592.7,4707.9 C 4397.1,4357.3 3387.4,3736.5 2383.4,2732.5 1385.2,1732.4 751,703.5 406.1,-484.4 c -36.4,-126.4 -67.1,-256.7 -69,-289.3 -1.9,-74.7 333.4,-756.8 513.5,-1042.3 145.6,-229.9 335.3,-498.2 352.5,-498.2 5.8,1.9 67.1,101.5 136,224.2 124.5,222.2 538.4,864.1 689.8,1069.1 l 80.5,109.2 -212.6,214.7 c -182,183.9 -212.7,226.1 -212.7,277.8 0,82.4 72.8,155.2 155.2,155.2 51.7,0 92,-30.7 258.7,-195.4 l 199.2,-193.6 42.2,55.6 c 24.9,30.6 105.4,132.2 182,228 l 136,172.4 -222.2,224.2 c -203.1,205 -222.3,231.8 -222.3,295.1 0,53.6 13.4,80.5 55.6,116.9 90.1,78.5 143.7,53.6 383.2,-185.9 l 210.8,-208.8 176.3,205 176.3,205 -220.3,222.3 c -193.5,197.3 -218.4,229.9 -218.4,289.3 0,86.2 65.1,149.4 153.3,149.4 55.6,0 90.1,-26.8 277.8,-210.8 116.9,-115 218.4,-210.8 224.2,-210.8 5.7,0 93.9,90.1 197.3,201.2 l 187.8,203.1 -214.8,216.5 c -187.8,191.6 -212.7,224.2 -212.7,283.6 0,86.2 65.1,149.4 153.3,149.4 55.6,0 92,-26.8 279.7,-212.7 l 216.5,-214.6 149.4,136 c 82.4,72.8 174.4,160.9 205,193.5 l 57.5,59.4 -205,208.8 c -185.9,185.9 -205,214.6 -205,277.8 0,92 53.6,145.6 147.5,145.6 63.2,0 90,-19.2 285.5,-212.7 l 214.6,-212.7 193.5,168.6 193.5,168.6 -201.2,205 c -189.7,191.6 -201.2,206.9 -201.2,281.6 0,61.3 11.5,86.2 49.8,116.9 95.8,74.7 130.3,57.5 371.7,-182 l 226.1,-222.3 197.3,159 c 109.2,86.2 206.9,164.8 218.4,174.4 11.5,9.6 -55.6,90 -168.6,203.1 -220.3,222.3 -243.3,275.9 -151.4,367.9 99.6,99.6 136,84.3 377.5,-155.2 l 214.6,-210.8 293.1,201.2 c 306.6,212.7 745.3,492.4 963.7,613.1 70.9,40.2 128.4,80.5 128.4,90.1 0,24.9 -454.1,320 -737.6,479 -281.7,157.1 -779.8,400.4 -818.1,400.4 -13.3,-1.6 -124.4,-30.4 -245.1,-66.8 z"
           inkscape:connector-curvature="0" />
        <path
           style="fill:#d31027;fill-opacity:1;stroke:#000000;stroke-width:3.50768"
           id="path8-6"
           d="M 7401.4,3527.7 C 7000.9,3292 6361,2876.3 6255.6,2780.5 c -11.5,-9.6 51.7,-90 157.1,-197.3 147.5,-149.5 176.3,-187.8 176.3,-239.5 0,-82.4 -72.8,-155.2 -155.2,-155.2 -51.7,0 -92,30.7 -258.7,193.5 l -197.4,193.5 -201.2,-155.2 c -111.1,-86.2 -206.9,-166.7 -214.6,-176.3 -7.7,-11.5 61.3,-95.8 153.3,-187.8 147.5,-147.5 164.8,-172.4 164.8,-235.7 0,-53.6 -11.5,-80.5 -49.8,-109.2 -97.7,-76.6 -145.6,-57.5 -348.7,139.9 l -187.8,182 -185.8,-162.9 c -101.5,-90 -185.8,-168.6 -185.8,-176.3 0,-5.8 72.8,-86.2 162.9,-178.2 143.7,-145.6 162.9,-174.4 162.9,-235.7 0,-74.7 -51.7,-143.7 -109.2,-147.5 -88.1,-5.7 -122.6,15.3 -287.4,178.2 L 4677,1485.1 4473.9,1297.3 c -111.1,-105.4 -203.1,-193.5 -203.1,-199.3 0,-3.8 72.8,-84.3 162.9,-176.3 143.7,-145.6 162.9,-174.4 162.9,-235.7 0,-74.7 -51.7,-143.7 -111.1,-147.5 -84.3,-5.7 -120.7,15.3 -275.9,170.5 l -166.7,164.8 -42.2,-38.3 c -23,-19.2 -109.2,-113 -195.4,-205 L 3652,461.9 3818.7,293.3 c 134.1,-138 164.8,-180.1 164.8,-228 0,-88.1 -19.2,-120.7 -84.3,-147.5 -84.3,-36.4 -132.2,-9.6 -308.5,164.8 L 3435.5,233.9 3259,31.1 l -178.2,-205 172.4,-176.3 c 195.4,-199.2 216.5,-256.7 126.5,-344.9 -88.1,-90.1 -147.5,-69 -335.3,115 l -166.7,162.9 -160.9,-205 c -90,-115 -170.5,-218.4 -178.2,-233.7 -11.5,-17.2 38.3,-80.5 168.6,-210.8 220.3,-220.3 241.4,-274 147.5,-367.9 -92,-92 -147.5,-70.9 -348.7,128.4 -92,92 -174.4,160.9 -185.8,153.3 -49.8,-30.7 -544.1,-793.2 -768.3,-1186 l -139.9,-243.4 95.8,-111.1 c 51.7,-59.4 197.4,-208.8 321.9,-329.6 548,-530.7 1207.1,-982.9 1994.5,-1366.1 l 314.2,-151.4 128.4,32.6 c 208.8,51.7 580.5,176.3 825.8,277.8 992.5,408.1 1860.4,1032.7 2764.8,1992.6 867.9,917.8 1440.8,1912.1 1749.3,3023.4 l 65.1,235.7 -72.8,168.6 c -394.7,892.8 -986.7,1701.4 -1688,2304.9 -120.7,103.5 -224.2,187.8 -229.9,187.8 -7.7,0 -132.2,-70.9 -279.7,-155.2 z"
           inkscape:connector-curvature="0" />
        <path
           style="fill:#d31027;fill-opacity:1;stroke:#000000;stroke-width:3.50768"
           id="path10-9"
           d="m 143.7,-1898.3 c -34.5,-130.3 -55.6,-1013.6 -36.4,-1509.8 19.2,-482.8 24.9,-534.6 67.1,-653.3 130.3,-350.6 417.7,-601.6 770.2,-674.4 285.5,-61.3 1645.8,-57.5 2075,3.8 l 92,13.4 -162.9,93.9 c -249.1,141.8 -731.9,469.4 -965.6,651.4 -689.9,540.3 -1257,1176.4 -1703.4,1912.1 -103.5,170.5 -126.5,197.3 -136,162.9 z"
           inkscape:connector-curvature="0" />
      </g>
    </g>
    <path
       transform="matrix(-0.95583528,0,0,0.95788252,271.90771,-222.09857)"
       inkscape:export-ydpi="53.799995"
       inkscape:export-xdpi="53.799995"
       inkscape:randomized="0"
       inkscape:rounded="0"
       inkscape:flatsided="true"
       sodipodi:arg2="3.1415491"
       sodipodi:arg1="2.6179504"
       sodipodi:r2="85.672287"
       sodipodi:r1="120.00529"
       sodipodi:cy="409.28586"
       sodipodi:cx="170.52629"
       sodipodi:sides="6"
       id="path821-9-5"
       style="fill:#333333;fill-opacity:1;stroke:#d31027;stroke-width:8.98185;stroke-linecap:round;stroke-linejoin:miter;stroke-miterlimit:4;stroke-dasharray:none;stroke-opacity:1;paint-order:normal"
       sodipodi:type="star"
       d="m 66.601273,469.29302 -0.0052,-120.00529 103.925015,-60.00716 103.93024,59.99813 0.005,120.00528 -103.92502,60.00717 z" />
    <path
       d="m 147.6323,224.59518 -11.818,-18.98129 -52.862203,0.60676 -12.57929,19.20321 a 3.2962323,3.2962323 0 0 0 4.26988,4.7362 c 7.39926,-3.81479 33.909003,-14.95018 67.972513,0.17135 a 3.9830648,3.9830648 0 0 0 5.0171,-5.73623 z"
       fill="#535a63"
       id="path2-3-1"
       style="fill:#666666;fill-opacity:1;stroke-width:0.280913" />
    <path
       d="m 134.91819,116.92406 -14.87154,-6.44977 a 52.63859,52.63859 0 0 0 -11.12416,-1.25849 c -25.942303,0 -46.974253,21.08252 -46.974253,47.08943 0,16.84074 8.26165,31.64485 21.51231,39.96831 v 0.003 a 5.4497113,5.4497113 0 0 1 2.02539,-0.38767 h 46.873123 a 5.4688131,5.4688131 0 0 1 1.83998,0.31743 c 13.34618,-8.29534 21.69772,-22.98426 21.69772,-39.90084 0,-16.17778 -8.5847,-30.90323 -20.97857,-39.38119 z"
       fill="#8fc2ff"
       id="path4-9-5"
       style="fill:#e5e5e5;fill-opacity:1;stroke-width:0.280913" />
    <path
       d="m 92.246107,206.11391 -9.29401,0.10674 -12.57929,19.20321 a 3.2962323,3.2962323 0 0 0 4.26988,4.7362 c 0.96044,-0.49524 2.24731,-1.11439 3.82548,-1.78295 a 3.294547,3.294547 0 0 1 0.33203,-2.95325 z"
       fill="#373c42"
       id="path10-7-4"
       style="fill:#4d4d4d;fill-opacity:1;stroke-width:0.280913" />
    <path
       d="m 83.421227,196.27354 v 0.003 a 5.4148778,5.4148778 0 0 1 2.06471,-0.32867 h 5.81096 c -12.90401,-8.4274 -20.92127,-23.02559 -20.92127,-39.61295 0,-24.57763 18.78492,-44.76825 42.745403,-46.91245 -1.42536,-0.12501 -2.84396,-0.19945 -4.19854,-0.19945 -25.942303,10e-6 -46.993913,21.07887 -46.993913,47.08579 0,16.84102 8.28973,31.64147 21.49265,39.96492 z"
       fill="#7aa7d3"
       id="path12-9-2"
       style="fill:#b1b1b1;fill-opacity:1;stroke-width:0.280913" />
    <path
       d="m 134.19904,196.20611 a 5.4778024,5.4778024 0 0 1 2.03101,9.03136 c -0.13203,0.13203 -0.27249,0.25844 -0.41575,0.37642 a 5.4615096,5.4615096 0 0 1 -3.45524,1.22759 H 85.485937 a 5.4778024,5.4778024 0 1 1 0,-10.95279 h 46.873123 a 5.4688131,5.4688131 0 0 1 1.83998,0.31742 z"
       fill="#8dd85b"
       id="path14-0-7"
       style="fill:#d31027;fill-opacity:1;stroke-width:0.280913" />
    <path
       d="m 88.438327,201.36367 a 5.382292,5.382292 0 0 1 5.475,-5.41599 h -8.42739 a 5.4013941,5.4013941 0 0 0 -5.475,5.42331 5.5426933,5.5426933 0 0 0 5.475,5.53228 h 8.42739 a 5.5522445,5.5522445 0 0 1 -5.475,-5.5396 z"
       fill="#6aa047"
       id="path16-3-2"
       style="fill:#790916;fill-opacity:1;stroke-width:0.280913" />
    <g
       inkscape:export-ydpi="53.799995"
       inkscape:export-xdpi="53.799995"
       style="fill:#d31027;fill-opacity:1;stroke:#000000;stroke-width:3.50768"
       id="g14-39-6-9"
       transform="matrix(0.03805321,0.01471653,-0.01466592,0.03850288,97.224967,130.08352)">
      <g
         style="fill:#d31027;fill-opacity:1;stroke:#000000;stroke-width:3.50768"
         id="g12-2-9-8"
         transform="matrix(0.0997661,-0.00658435,-0.00663306,-0.09979668,1.9631403,544.88388)">
        <path
           style="fill:#d31027;fill-opacity:1;stroke:#000000;stroke-width:3.50768"
           id="path4-6-6"
           d="m 7412.9,5004.9 c -120.7,-7.7 -291.2,-19.2 -377.5,-26.8 l -157.1,-15.3 306.6,-183.9 c 1086.4,-659.1 1904.5,-1454.2 2513.8,-2452.4 130.3,-212.7 143.7,-229.9 153.3,-182 5.7,30.6 23,264.4 34.5,523.1 32.6,620.8 3.8,1444.6 -55.6,1609.4 -65.1,187.8 -120.7,274 -260.6,413.8 -233.7,233.7 -387,291.2 -854.5,314.2 -377.5,21 -971.5,19.1 -1302.9,-0.1 z"
           inkscape:connector-curvature="0" />
        <path
           style="fill:#d31027;fill-opacity:1;stroke:#000000;stroke-width:3.50768"
           id="path6-4-3"
           d="M 5592.7,4707.9 C 4397.1,4357.3 3387.4,3736.5 2383.4,2732.5 1385.2,1732.4 751,703.5 406.1,-484.4 c -36.4,-126.4 -67.1,-256.7 -69,-289.3 -1.9,-74.7 333.4,-756.8 513.5,-1042.3 145.6,-229.9 335.3,-498.2 352.5,-498.2 5.8,1.9 67.1,101.5 136,224.2 124.5,222.2 538.4,864.1 689.8,1069.1 l 80.5,109.2 -212.6,214.7 c -182,183.9 -212.7,226.1 -212.7,277.8 0,82.4 72.8,155.2 155.2,155.2 51.7,0 92,-30.7 258.7,-195.4 l 199.2,-193.6 42.2,55.6 c 24.9,30.6 105.4,132.2 182,228 l 136,172.4 -222.2,224.2 c -203.1,205 -222.3,231.8 -222.3,295.1 0,53.6 13.4,80.5 55.6,116.9 90.1,78.5 143.7,53.6 383.2,-185.9 l 210.8,-208.8 176.3,205 176.3,205 -220.3,222.3 c -193.5,197.3 -218.4,229.9 -218.4,289.3 0,86.2 65.1,149.4 153.3,149.4 55.6,0 90.1,-26.8 277.8,-210.8 116.9,-115 218.4,-210.8 224.2,-210.8 5.7,0 93.9,90.1 197.3,201.2 l 187.8,203.1 -214.8,216.5 c -187.8,191.6 -212.7,224.2 -212.7,283.6 0,86.2 65.1,149.4 153.3,149.4 55.6,0 92,-26.8 279.7,-212.7 l 216.5,-214.6 149.4,136 c 82.4,72.8 174.4,160.9 205,193.5 l 57.5,59.4 -205,208.8 c -185.9,185.9 -205,214.6 -205,277.8 0,92 53.6,145.6 147.5,145.6 63.2,0 90,-19.2 285.5,-212.7 l 214.6,-212.7 193.5,168.6 193.5,168.6 -201.2,205 c -189.7,191.6 -201.2,206.9 -201.2,281.6 0,61.3 11.5,86.2 49.8,116.9 95.8,74.7 130.3,57.5 371.7,-182 l 226.1,-222.3 197.3,159 c 109.2,86.2 206.9,164.8 218.4,174.4 11.5,9.6 -55.6,90 -168.6,203.1 -220.3,222.3 -243.3,275.9 -151.4,367.9 99.6,99.6 136,84.3 377.5,-155.2 l 214.6,-210.8 293.1,201.2 c 306.6,212.7 745.3,492.4 963.7,613.1 70.9,40.2 128.4,80.5 128.4,90.1 0,24.9 -454.1,320 -737.6,479 -281.7,157.1 -779.8,400.4 -818.1,400.4 -13.3,-1.6 -124.4,-30.4 -245.1,-66.8 z"
           inkscape:connector-curvature="0" />
        <path
           style="fill:#d31027;fill-opacity:1;stroke:#000000;stroke-width:3.50768"
           id="path8-6-3"
           d="M 7401.4,3527.7 C 7000.9,3292 6361,2876.3 6255.6,2780.5 c -11.5,-9.6 51.7,-90 157.1,-197.3 147.5,-149.5 176.3,-187.8 176.3,-239.5 0,-82.4 -72.8,-155.2 -155.2,-155.2 -51.7,0 -92,30.7 -258.7,193.5 l -197.4,193.5 -201.2,-155.2 c -111.1,-86.2 -206.9,-166.7 -214.6,-176.3 -7.7,-11.5 61.3,-95.8 153.3,-187.8 147.5,-147.5 164.8,-172.4 164.8,-235.7 0,-53.6 -11.5,-80.5 -49.8,-109.2 -97.7,-76.6 -145.6,-57.5 -348.7,139.9 l -187.8,182 -185.8,-162.9 c -101.5,-90 -185.8,-168.6 -185.8,-176.3 0,-5.8 72.8,-86.2 162.9,-178.2 143.7,-145.6 162.9,-174.4 162.9,-235.7 0,-74.7 -51.7,-143.7 -109.2,-147.5 -88.1,-5.7 -122.6,15.3 -287.4,178.2 L 4677,1485.1 4473.9,1297.3 c -111.1,-105.4 -203.1,-193.5 -203.1,-199.3 0,-3.8 72.8,-84.3 162.9,-176.3 143.7,-145.6 162.9,-174.4 162.9,-235.7 0,-74.7 -51.7,-143.7 -111.1,-147.5 -84.3,-5.7 -120.7,15.3 -275.9,170.5 l -166.7,164.8 -42.2,-38.3 c -23,-19.2 -109.2,-113 -195.4,-205 L 3652,461.9 3818.7,293.3 c 134.1,-138 164.8,-180.1 164.8,-228 0,-88.1 -19.2,-120.7 -84.3,-147.5 -84.3,-36.4 -132.2,-9.6 -308.5,164.8 L 3435.5,233.9 3259,31.1 l -178.2,-205 172.4,-176.3 c 195.4,-199.2 216.5,-256.7 126.5,-344.9 -88.1,-90.1 -147.5,-69 -335.3,115 l -166.7,162.9 -160.9,-205 c -90,-115 -170.5,-218.4 -178.2,-233.7 -11.5,-17.2 38.3,-80.5 168.6,-210.8 220.3,-220.3 241.4,-274 147.5,-367.9 -92,-92 -147.5,-70.9 -348.7,128.4 -92,92 -174.4,160.9 -185.8,153.3 -49.8,-30.7 -544.1,-793.2 -768.3,-1186 l -139.9,-243.4 95.8,-111.1 c 51.7,-59.4 197.4,-208.8 321.9,-329.6 548,-530.7 1207.1,-982.9 1994.5,-1366.1 l 314.2,-151.4 128.4,32.6 c 208.8,51.7 580.5,176.3 825.8,277.8 992.5,408.1 1860.4,1032.7 2764.8,1992.6 867.9,917.8 1440.8,1912.1 1749.3,3023.4 l 65.1,235.7 -72.8,168.6 c -394.7,892.8 -986.7,1701.4 -1688,2304.9 -120.7,103.5 -224.2,187.8 -229.9,187.8 -7.7,0 -132.2,-70.9 -279.7,-155.2 z"
           inkscape:connector-curvature="0" />
        <path
           style="fill:#d31027;fill-opacity:1;stroke:#000000;stroke-width:3.50768"
           id="path10-9-4"
           d="m 143.7,-1898.3 c -34.5,-130.3 -55.6,-1013.6 -36.4,-1509.8 19.2,-482.8 24.9,-534.6 67.1,-653.3 130.3,-350.6 417.7,-601.6 770.2,-674.4 285.5,-61.3 1645.8,-57.5 2075,3.8 l 92,13.4 -162.9,93.9 c -249.1,141.8 -731.9,469.4 -965.6,651.4 -689.9,540.3 -1257,1176.4 -1703.4,1912.1 -103.5,170.5 -126.5,197.3 -136,162.9 z"
           inkscape:connector-curvature="0" />
      </g>
    </g>
    <path
       d="m 153.72248,115.7252 v 0.01 a 0.39366182,0.39366182 0 0 1 -0.30314,0.39416 c -5.70029,1.08143 -17.31304,3.61827 -19.59719,19.60223 a 0.15160919,0.15160919 0 0 1 -0.30316,0 c -2.28413,-15.984 -14.00809,-18.51575 -19.7033,-19.59718 a 0.40124197,0.40124197 0 0 1 0,-0.77825 c 5.64973,-1.00055 17.2524,-4.74515 19.71342,-18.682533 a 0.15160273,0.15160273 0 0 1 0.29823,0 c 2.4509,13.937383 13.94243,17.676923 19.58708,18.677483 a 0.39062975,0.39062975 0 0 1 0.30825,0.37397 z"
       fill="#ff7171"
       id="path8-9-2"
       style="fill:#d31027;fill-opacity:1;stroke-width:0.505341" />
    <path
       d="m 199.35917,217.91927 a 0.05152453,0.05152453 0 0 1 0.005,0.10256 c -1.71987,0.31487 -2.96862,0.93747 -3.88104,1.70318 -1.97988,1.65785 -2.37943,3.99195 -2.58219,5.34327 a 0.13668312,0.13668312 0 0 1 -0.26597,0.008 c -0.41626,-1.92978 -1.84869,-5.87282 -6.65883,-6.53358 a 0.05176307,0.05176307 0 0 1 -0.004,-0.10258 7.7720931,7.7720931 0 0 0 3.19643,-1.45389 c 2.11705,-1.65785 2.7599,-4.12913 2.95431,-5.53889 a 0.13238941,0.13238941 0 0 1 0.12285,-0.11093 h 0.0107 a 0.13298576,0.13298576 0 0 1 0.1324,0.099 c 0.44368,1.94648 1.46224,5.911 6.97012,6.4835 z"
       fill="#ff7171"
       id="path6-3-3"
       style="fill:#d31027;fill-opacity:1;stroke-width:0.11927" />
    <path
       d="m 34.364555,218.5619 a 0.05152453,0.05152453 0 0 1 0.005,0.10257 c -1.71987,0.31486 -2.96862,0.93745 -3.88104,1.70316 -1.97988,1.65785 -2.37943,3.99197 -2.58219,5.34329 a 0.13668312,0.13668312 0 0 1 -0.26597,0.008 c -0.41626,-1.92978 -1.84869,-5.87283 -6.65883,-6.53359 a 0.05176307,0.05176307 0 0 1 -0.004,-0.10257 7.7720931,7.7720931 0 0 0 3.19643,-1.4539 c 2.11704,-1.65784 2.7599,-4.12912 2.95431,-5.53889 a 0.13238941,0.13238941 0 0 1 0.12285,-0.11092 h 0.0107 a 0.13298576,0.13298576 0 0 1 0.13239,0.099 c 0.44368,1.94649 1.46225,5.91101 6.97012,6.48351 z"
       fill="#ff7171"
       id="path6-3-6-5"
       style="fill:#d31027;fill-opacity:1;stroke-width:0.11927" />
    <path
       d="m 198.21877,125.26349 a 0.05152453,0.05152453 0 0 1 0.005,0.10255 c -1.71986,0.31488 -2.96861,0.93746 -3.88103,1.70318 -1.97988,1.65785 -2.37943,3.99196 -2.58219,5.34328 a 0.13668312,0.13668312 0 0 1 -0.26597,0.008 c -0.41626,-1.92978 -1.84869,-5.87283 -6.65883,-6.53358 a 0.05176307,0.05176307 0 0 1 -0.004,-0.10258 7.7720931,7.7720931 0 0 0 3.19642,-1.4539 c 2.11704,-1.65784 2.75991,-4.12912 2.95432,-5.53889 a 0.13238941,0.13238941 0 0 1 0.12284,-0.11092 h 0.0107 a 0.13298576,0.13298576 0 0 1 0.13239,0.099 c 0.44369,1.94648 1.46225,5.911 6.97013,6.4835 z"
       fill="#ff7171"
       id="path6-3-7-2"
       style="fill:#d31027;fill-opacity:1;stroke-width:0.11927" />
    <path
       d="m 116.42651,76.123093 a 0.05152453,0.05152453 0 0 1 0.005,0.102571 c -1.71987,0.31487 -2.96862,0.937458 -3.88103,1.703171 -1.97988,1.65785 -2.37943,3.991959 -2.58219,5.343278 a 0.13668312,0.13668312 0 0 1 -0.26597,0.008 c -0.41626,-1.929781 -1.84869,-5.872829 -6.65884,-6.533592 a 0.05176307,0.05176307 0 0 1 -0.004,-0.102568 7.7720931,7.7720931 0 0 0 3.19643,-1.453902 c 2.11704,-1.657839 2.75991,-4.129119 2.95431,-5.538888 a 0.13238941,0.13238941 0 0 1 0.12285,-0.110921 h 0.0107 a 0.13298576,0.13298576 0 0 1 0.13239,0.099 c 0.44369,1.946492 1.46225,5.911012 6.97013,6.483512 z"
       fill="#ff7171"
       id="path6-3-38-7"
       style="fill:#d31027;fill-opacity:1;stroke-width:0.11927" />
    <path
       d="m 35.226965,122.13686 a 0.05152453,0.05152453 0 0 1 0.005,0.10255 c -1.71987,0.31488 -2.96862,0.93746 -3.88103,1.70318 -1.97988,1.65785 -2.37943,3.99196 -2.58219,5.34328 a 0.13668312,0.13668312 0 0 1 -0.26598,0.008 c -0.41625,-1.92978 -1.84868,-5.87283 -6.65883,-6.53359 a 0.05176307,0.05176307 0 0 1 -0.004,-0.10257 7.7720931,7.7720931 0 0 0 3.19643,-1.45389 c 2.11704,-1.65785 2.75991,-4.12913 2.95431,-5.5389 a 0.13238941,0.13238941 0 0 1 0.12285,-0.11092 h 0.0107 a 0.13298576,0.13298576 0 0 1 0.13239,0.099 c 0.44368,1.94649 1.46225,5.91101 6.97013,6.48351 z"
       fill="#ff7171"
       id="path6-3-33-4"
       style="fill:#d31027;fill-opacity:1;stroke-width:0.11927" />
    <path
       d="m 145.30275,181.52454 a 0.05152453,0.05152453 0 0 1 0.005,0.10257 c -1.71987,0.31487 -2.96862,0.93747 -3.88104,1.70318 -1.97988,1.65785 -2.37943,3.99195 -2.58219,5.34327 a 0.13668312,0.13668312 0 0 1 -0.26597,0.008 c -0.41625,-1.92978 -1.84869,-5.87282 -6.65883,-6.53358 a 0.05176307,0.05176307 0 0 1 -0.004,-0.10258 7.7720931,7.7720931 0 0 0 3.19643,-1.4539 c 2.11704,-1.65784 2.7599,-4.12912 2.95431,-5.53888 a 0.13238941,0.13238941 0 0 1 0.12285,-0.11093 h 0.0107 a 0.13298576,0.13298576 0 0 1 0.13239,0.099 c 0.44368,1.9465 1.46224,5.91101 6.97012,6.48351 z"
       fill="#ff7171"
       id="path6-3-77-0"
       style="fill:#d31027;fill-opacity:1;stroke-width:0.11927" />
    <path
       d="m 90.356794,126.33809 a 0.05152453,0.05152453 0 0 1 0.005,0.10256 c -1.71987,0.31487 -2.96862,0.93747 -3.88104,1.70317 -1.97987,1.65785 -2.37943,3.99196 -2.58219,5.34328 a 0.13668312,0.13668312 0 0 1 -0.26597,0.008 c -0.41625,-1.92978 -1.84868,-5.87283 -6.65883,-6.53359 a 0.05176307,0.05176307 0 0 1 -0.004,-0.10257 7.7720931,7.7720931 0 0 0 3.19643,-1.45389 c 2.11704,-1.65785 2.7599,-4.12913 2.95431,-5.5389 a 0.13238941,0.13238941 0 0 1 0.12285,-0.11092 h 0.0107 a 0.13298576,0.13298576 0 0 1 0.13239,0.099 c 0.44368,1.94649 1.46225,5.91101 6.97012,6.48351 z"
       fill="#ff7171"
       id="path6-3-76-3"
       style="fill:#d31027;fill-opacity:1;stroke-width:0.11927" />
    <path
       d="m -68.776254,111.20134 v 0.008 a 0.32791054,0.32791054 0 0 1 -0.25251,0.32832 c -4.7482,0.90081 -14.42133,3.01393 -16.32397,16.32818 a 0.1262867,0.1262867 0 0 1 -0.25252,0 c -1.90263,-13.31428 -11.6684,-15.42317 -16.412366,-16.32397 a 0.33422462,0.33422462 0 0 1 0,-0.64826 c 4.706086,-0.83344 14.370826,-3.95259 16.420796,-15.562077 a 0.12628132,0.12628132 0 0 1 0.24841,0 c 2.04154,11.609487 11.6137,14.724427 16.31556,15.557867 a 0.3253849,0.3253849 0 0 1 0.25676,0.31151 z"
       fill="#ff7171"
       id="path8-9-2-3"
       style="fill:#d31027;fill-opacity:1;stroke-width:0.420937" />
    <path
       d="m -118.40914,133.00591 a 0.05152453,0.05152453 0 0 1 0.005,0.10255 c -1.71987,0.31488 -2.96862,0.93746 -3.88103,1.70318 -1.97988,1.65785 -2.37943,3.99196 -2.58219,5.34328 a 0.13668312,0.13668312 0 0 1 -0.26598,0.008 c -0.41625,-1.92978 -1.84868,-5.87283 -6.65883,-6.53359 a 0.05176307,0.05176307 0 0 1 -0.004,-0.10257 7.7720931,7.7720931 0 0 0 3.19643,-1.45389 c 2.11704,-1.65785 2.75991,-4.12913 2.95431,-5.5389 a 0.13238941,0.13238941 0 0 1 0.12285,-0.11092 h 0.0107 a 0.13298576,0.13298576 0 0 1 0.13239,0.099 c 0.44368,1.94649 1.46225,5.91101 6.97013,6.48351 z"
       fill="#ff7171"
       id="path6-3-33-4-9"
       style="fill:#d31027;fill-opacity:1;stroke-width:0.11927" />
    <path
       d="m -76.119764,187.20202 a 0.05152453,0.05152453 0 0 1 0.005,0.10255 c -1.71987,0.31488 -2.96862,0.93746 -3.88103,1.70318 -1.97988,1.65785 -2.37943,3.99196 -2.58219,5.34328 a 0.13668312,0.13668312 0 0 1 -0.26598,0.008 c -0.41625,-1.92978 -1.84868,-5.87283 -6.65883,-6.53359 a 0.05176307,0.05176307 0 0 1 -0.004,-0.10257 7.7720931,7.7720931 0 0 0 3.19643,-1.45389 c 2.11704,-1.65785 2.75991,-4.12913 2.95431,-5.5389 a 0.13238941,0.13238941 0 0 1 0.12285,-0.11092 h 0.0107 a 0.13298576,0.13298576 0 0 1 0.13239,0.099 c 0.44368,1.94649 1.46225,5.91101 6.97013,6.48351 z"
       fill="#ff7171"
       id="path6-3-33-4-95"
       style="fill:#d31027;fill-opacity:1;stroke-width:0.11927" />
    <path
       d="m -176.71101,205.67796 a 0.05152453,0.05152453 0 0 1 0.005,0.10255 c -1.71987,0.31488 -2.96862,0.93746 -3.88103,1.70318 -1.97988,1.65785 -2.37943,3.99196 -2.58219,5.34328 a 0.13668312,0.13668312 0 0 1 -0.26598,0.008 c -0.41625,-1.92978 -1.84868,-5.87283 -6.65883,-6.53359 a 0.05176307,0.05176307 0 0 1 -0.004,-0.10257 7.7720931,7.7720931 0 0 0 3.19643,-1.45389 c 2.11704,-1.65785 2.75991,-4.12913 2.95431,-5.5389 a 0.13238941,0.13238941 0 0 1 0.12285,-0.11092 h 0.0107 a 0.13298576,0.13298576 0 0 1 0.13239,0.099 c 0.44368,1.94649 1.46225,5.91101 6.97013,6.48351 z"
       fill="#ff7171"
       id="path6-3-33-4-0"
       style="fill:#d31027;fill-opacity:1;stroke-width:0.11927" />
    <path
       d="m -186.97542,126.43669 a 0.05152453,0.05152453 0 0 1 0.005,0.10255 c -1.71987,0.31488 -2.96862,0.93746 -3.88103,1.70318 -1.97988,1.65785 -2.37943,3.99196 -2.58219,5.34328 a 0.13668312,0.13668312 0 0 1 -0.26598,0.008 c -0.41625,-1.92978 -1.84868,-5.87283 -6.65883,-6.53359 a 0.05176307,0.05176307 0 0 1 -0.004,-0.10257 7.7720931,7.7720931 0 0 0 3.19643,-1.45389 c 2.11704,-1.65785 2.75991,-4.12913 2.95431,-5.5389 a 0.13238941,0.13238941 0 0 1 0.12285,-0.11092 h 0.0107 a 0.13298576,0.13298576 0 0 1 0.13239,0.099 c 0.44368,1.94649 1.46225,5.91101 6.97013,6.48351 z"
       fill="#ff7171"
       id="path6-3-33-4-4"
       style="fill:#d31027;fill-opacity:1;stroke-width:0.11927" />
    <path
       d="m -105.68127,72.651169 a 0.05152453,0.05152453 0 0 1 0.005,0.102549 c -1.71987,0.314881 -2.96862,0.93746 -3.88103,1.70318 -1.97988,1.657851 -2.37943,3.991961 -2.58219,5.343281 a 0.13668312,0.13668312 0 0 1 -0.26598,0.008 c -0.41625,-1.92978 -1.84868,-5.87283 -6.65883,-6.53359 a 0.05176307,0.05176307 0 0 1 -0.004,-0.10257 7.7720931,7.7720931 0 0 0 3.19643,-1.453891 c 2.11704,-1.657849 2.75991,-4.12913 2.95431,-5.5389 a 0.13238941,0.13238941 0 0 1 0.12285,-0.11092 h 0.0107 a 0.13298576,0.13298576 0 0 1 0.13239,0.099 c 0.44368,1.94649 1.46225,5.911011 6.97013,6.483511 z"
       fill="#ff7171"
       id="path6-3-33-4-958"
       style="fill:#d31027;fill-opacity:1;stroke-width:0.11927" />
    <path
       d="m -23.565964,118.63574 a 0.05152453,0.05152453 0 0 1 0.005,0.10255 c -1.71987,0.31488 -2.96862,0.93746 -3.88103,1.70318 -1.97988,1.65785 -2.37943,3.99196 -2.58219,5.34328 a 0.13668312,0.13668312 0 0 1 -0.26598,0.008 c -0.41625,-1.92978 -1.84868,-5.87283 -6.65883,-6.53359 a 0.05176307,0.05176307 0 0 1 -0.004,-0.10257 7.7720931,7.7720931 0 0 0 3.19643,-1.45389 c 2.11704,-1.65785 2.75991,-4.12913 2.95431,-5.5389 a 0.13238941,0.13238941 0 0 1 0.12285,-0.11092 h 0.0107 a 0.13298576,0.13298576 0 0 1 0.13239,0.099 c 0.44368,1.94649 1.46225,5.91101 6.97013,6.48351 z"
       fill="#ff7171"
       id="path6-3-33-4-6"
       style="fill:#d31027;fill-opacity:1;stroke-width:0.11927" />
    <path
       d="m -20.691934,215.94237 a 0.05152453,0.05152453 0 0 1 0.005,0.10255 c -1.71987,0.31488 -2.96862,0.93746 -3.88103,1.70318 -1.97988,1.65785 -2.37943,3.99196 -2.58219,5.34328 a 0.13668312,0.13668312 0 0 1 -0.26598,0.008 c -0.41625,-1.92978 -1.84868,-5.87283 -6.65883,-6.53359 a 0.05176307,0.05176307 0 0 1 -0.004,-0.10257 7.7720931,7.7720931 0 0 0 3.19643,-1.45389 c 2.11704,-1.65785 2.75991,-4.12913 2.95431,-5.5389 a 0.13238941,0.13238941 0 0 1 0.12285,-0.11092 h 0.0107 a 0.13298576,0.13298576 0 0 1 0.13239,0.099 c 0.44368,1.94649 1.46225,5.91101 6.97013,6.48351 z"
       fill="#ff7171"
       id="path6-3-33-4-3"
       style="fill:#d31027;fill-opacity:1;stroke-width:0.11927" />
  </g>
</svg>
