<?xml version="1.0" encoding="UTF-8" standalone="no"?>
<svg
   xmlns:dc="http://purl.org/dc/elements/1.1/"
   xmlns:cc="http://creativecommons.org/ns#"
   xmlns:rdf="http://www.w3.org/1999/02/22-rdf-syntax-ns#"
   xmlns:svg="http://www.w3.org/2000/svg"
   xmlns="http://www.w3.org/2000/svg"
   xmlns:sodipodi="http://sodipodi.sourceforge.net/DTD/sodipodi-0.dtd"
   xmlns:inkscape="http://www.inkscape.org/namespaces/inkscape"
   height="446.11395pt"
   viewBox="-89 0 385.32606 446.11599"
   width="385.32605pt"
   version="1.1"
   id="svg28"
   sodipodi:docname="hex.svg"
   inkscape:version="1.0.1 (3bc2e813f5, 2020-09-07)"
   inkscape:export-filename="C:\Users\Tan\Documents\GitHub\__dynastyprocess\graphics\tanho.ca\invert.png"
   inkscape:export-xdpi="82.830002"
   inkscape:export-ydpi="82.830002">
  <metadata
     id="metadata34">
    <rdf:RDF>
      <cc:Work
         rdf:about="">
        <dc:format>image/svg+xml</dc:format>
        <dc:type
           rdf:resource="http://purl.org/dc/dcmitype/StillImage" />
        <dc:title></dc:title>
      </cc:Work>
    </rdf:RDF>
  </metadata>
  <defs
     id="defs32" />
  <sodipodi:namedview
     pagecolor="#ffffff"
     bordercolor="#666666"
     borderopacity="1"
     objecttolerance="10"
     gridtolerance="10"
     guidetolerance="10"
     inkscape:pageopacity="0"
     inkscape:pageshadow="2"
     inkscape:window-width="1920"
     inkscape:window-height="1017"
     id="namedview30"
     showgrid="false"
     inkscape:zoom="1"
     inkscape:cx="145.68746"
     inkscape:cy="408.90077"
     inkscape:window-x="-8"
     inkscape:window-y="-8"
     inkscape:window-maximized="1"
     inkscape:current-layer="svg28" />
  <path
     sodipodi:type="star"
     style="fill:#000000;fill-opacity:1;stroke:#f7f7f7;stroke-width:20.1341;stroke-miterlimit:4;stroke-dasharray:none;stroke-opacity:1"
     id="path954"
     sodipodi:sides="6"
     sodipodi:cx="111.84054"
     sodipodi:cy="231.91202"
     sodipodi:r1="227.58188"
     sodipodi:r2="86.470001"
     sodipodi:arg1="1.5707963"
     sodipodi:arg2="2.0943951"
     inkscape:flatsided="true"
     inkscape:rounded="0"
     inkscape:randomized="0"
     d="M 111.84054,459.4939 -85.251147,345.70296 -85.251153,118.12108 111.84053,4.3301392 308.93222,118.12107 l 1e-5,227.58188 z"
     transform="matrix(0.93003027,0,0,0.93249207,-0.35203672,6.8018645)" />
  <path
     d="m 101.73628,382.26957 c -0.91016,-3.38672 -1.62891,-6.78125 -2.390626,-10.375 l -0.12109,-0.5625 c -1.83203,-8.6836 -3.72656,-17.65625 -8.296869,-25.3711 -4.64844,-7.85156 -11.78907,-13.9375 -18.69922,-19.82421 -6.72266,-5.71485 -13.0586,-11.10547 -17.66797,-18.15625 l -1.33594,-2.04297 1.20703,-2.1211 c 3.97266,-7 6.02735,-13.93359 5.9375,-20.05859 l -0.10156,-7.02734 6.09375,3.5039 c 0.82031,0.46875 1.64453,0.91407 2.45703,1.31641 10.14844,5.16016 21.99259,8.93303 33.711335,8.93303 12.35547,0 24.9166,-1.64861 35.47519,-7.3283 1.33594,-0.71484 3.18224,-1.90772 4.60021,-2.79834 l 5.10655,-3.16797 -0.24485,3.82252 c 1.11328,6.28125 3.45703,12.55078 6.96484,18.64062 l 1.65625,2.8711 -31.03125,26.66015 c -2.03906,1.75781 -4.09375,3.53125 -5.5625,5.75 -2.54687,3.84766 -3.10547,8.59375 -3.64844,13.18359 l -0.0625,0.55079 c -1.33984,11.28125 -3.46093,22.5625 -6.3125,33.5664 l -3.79687,14.66797 z"
     id="path18"
     style="fill:#4d4d4d;fill-opacity:1;stroke:#f7f7f7;stroke-width:6.00003;stroke-miterlimit:4;stroke-dasharray:none;stroke-opacity:1"
     sodipodi:nodetypes="ccccccccccccsccccccccccccc" />
  <path
     d="m 105.10007,291.46 c -11.906466,0 -23.621905,-2.73686 -33.871475,-7.91817 -21.47376,-10.85384 -37.26621,-31.58247 -41.710656,-55.80089 -1.496081,0.74632 -4.444407,0.008 -5.919506,-0.36876 -2.866572,-3.40263 -7.625118,-25.65601 -3.91239,-30.46759 1.94152,-0.45177 2.608169,-0.58384 4.517048,-0.40792 -1.90644,-12.95912 -1.30215,-26.72915 1.78168,-39.8598 2.73685,-11.64137 7.294384,-22.60438 13.536104,-32.58493 4.69008,-7.5049 8.22616,-12.42889 14.41722,-12.42889 2.20663,0 4.6082,0.64328 7.78949,2.08967 11.66087,5.29827 24.24182,7.98834 37.380269,7.98834 15.957176,0 32.202836,-3.91424 48.280876,-11.63358 l 3.06825,-1.47368 1.93761,2.79142 c 7.57119,10.89674 12.66673,21.18528 16.53029,33.36076 2.22613,7.00978 3.72711,14.26906 4.45616,21.57903 0.0311,0.39376 0.0896,0.8694 0.15984,1.46199 1.4581,12.75249 1.04484,16.36654 0.60819,17.97668 l -0.24172,0.88499 c 2.58802,-0.99318 2.65559,-0.99287 5.34669,-1.17409 4.36887,4.49682 2.90758,33.2528 0.24265,36.89025 -0.43848,-0.0426 -2.58092,0.73738 -3.01757,0.71428 0.308,24.00788 -13.76089,46.69279 -34.95786,58.93065 -10.70959,6.18326 -23.30613,9.45033 -36.42119,9.45033 z"
     fill="#ffdac4"
     id="path16-2"
     style="fill:#4d4d4d;fill-opacity:1;stroke:#f7f7f7;stroke-width:6.00003;stroke-miterlimit:4;stroke-dasharray:none;stroke-opacity:1"
     sodipodi:nodetypes="ccccccccscscccccccccccccc" />
  <path
     d="M 156.85347,377.17222 C 146.4941,363.31675 135.1191,349.9105 123.04879,337.32456 l -2.87891,-3 3.10938,-2.75781 c 0.54687,-0.48828 1.11328,-0.98047 1.6914,-1.47656 l 31.22656,-26.82813 1.35938,6.67578 c 4.34375,21.33203 6.52734,43.14453 6.5,64.84375 l -0.0156,12 z m 0,0"
     fill="#b2eaf9"
     id="path2"
     style="fill:#808080;fill-opacity:1;stroke:#f7f7f7;stroke-width:6.00003;stroke-miterlimit:4;stroke-dasharray:none;stroke-opacity:1" />
  <path
     d="m 43.396445,376.32846 c -2.64453,-20.98437 -0.29688,-42.62109 6.80078,-62.5625 l 3.02734,-7.82842 3.85938,6.66436 c 4.35156,5.41016 9.73828,9.99219 14.95312,14.42578 l 0.31641,0.27344 c 3.50391,2.99219 6.8125,5.81641 9.89844,8.90625 l 2.64062,2.64063 -40.3789,46.33984 z"
     fill="#b2eaf9"
     id="path4"
     style="fill:#808080;fill-opacity:1;stroke:#f7f7f7;stroke-width:6.00003;stroke-miterlimit:4;stroke-dasharray:none;stroke-opacity:1"
     sodipodi:nodetypes="cccccccccc" />
  <path
     d="m 240.88316,355.61015 c -28.7609,-13.15501 -46.33642,-15.17564 -74.58047,-39.31294 l -9.08594,-9.60156 2.23828,13.02734 c 3.80078,22.14454 5.28906,44.73047 4.3711,67.14844 -11.92969,-16.91015 -25.28516,-33.16797 -39.70313,-48.32031 l -3.95312,-4.22656 -2.7461,5.74609 c -0.94922,2.91016 -1.32031,6.1211 -1.64844,8.91797 l -0.0703,0.57812 c -1.82031,15.3711 -5.07812,30.64844 -9.66797,45.34375 l -0.32812,0.73829 c -0.27846,8.43621 -0.30118,3.91531 -1.20358,36.24412 -0.13783,4.9379 1.80783,-0.96336 4.7387,-0.0653 26.01568,-18.05919 101.04675,-62.37965 131.63909,-76.21747 z"
     fill="#5bd0fc"
     id="path22"
     style="fill:#808080;fill-opacity:1;stroke:#f7f7f7;stroke-width:6.00003;stroke-miterlimit:4;stroke-dasharray:none;stroke-opacity:1"
     sodipodi:nodetypes="ccccccccccccscc" />
  <path
     d="m 105.16988,393.71518 c -3.15625,-6.83984 -4.73047,-14.28125 -6.269536,-21.53515 -1.91406,-9.0586 -3.72265,-17.61329 -8.273429,-25.30079 -0.7461,-1.26171 -1.59766,-2.51953 -2.76953,-4.07812 l -2.96485,-3.95313 -37.78125,43.35157 c -0.49219,0.57422 -0.9375,0.96093 -1.40234,0.97265 h -0.1211 c -0.85546,0 -1.48828,-0.85937 -1.73046,-2.36328 -2.92188,-18.23828 -2.11329,-36.59765 2.40234,-54.57031 l 3.08594,-12.29688 -9.58203,8.29688 c -16.334761,13.12921 -54.243525,19.92451 -77.203063,29.75331 129.487753,73.93558 100.516193,61.65852 141.102478,83.28435 1.83033,1.1367 0.34026,-4.32691 0.49345,-6.53877 0.73699,-10.64122 1.21086,-22.03108 1.39619,-34.19421 z"
     fill="#5bd0fc"
     id="path24"
     style="fill:#808080;fill-opacity:1;stroke:#f7f7f7;stroke-width:6.00003;stroke-miterlimit:4;stroke-dasharray:none;stroke-opacity:1"
     sodipodi:nodetypes="cccccccsccccccscc" />
  <path
     d="M 22.608576,188.8748 C 15.695647,157.00613 26.979505,95.78123 29.813228,82.84468 l 1.92982,-8.72908 5.212497,7.26318 c 2.82262,3.93374 6.23005,7.31387 10.1287,10.04683 -1.73101,-11.97276 1.32163,-24.580999 8.43277,-34.608319 l 4.22224,-5.95714 2.73686,6.76806 c 1.34504,3.32944 3.66472,6.19495 6.53803,8.078 0.5809,-12.21057 7.22031,-24.30029 17.38799,-31.567372 l 3.98441,-2.846016 1.988319,4.475651 c 2.37428,5.345047 7.36455,9.949357 14.050726,12.970807 4.30022,1.94933 8.93181,3.21249 13.41136,4.42887 l 0.10917,0.0312 c 3.58285,0.96687 6.57312,1.79338 9.61017,2.87331 6.49124,2.32749 14.90453,6.81874 18.18719,15.02539 0.90449,2.265119 2.78754,6.974689 5.5283,6.974689 0.28071,0 0.58479,-0.039 0.91228,-0.11696 2.54191,-0.60819 3.20469,-3.91034 3.30995,-6.573119 l 1.00975,-25.33343 2.83089,12.030745 c 3.05213,13.745679 12.21058,26.623884 13.55171,40.935824 l 0.35089,-0.42885 6.45616,-9.66086 -3.06931,11.58679 c -4.41712,27.18916 0.91474,50.98824 -1.30649,75.88626 l -2.22505,6.96688 -0.83042,-9.25149 c -0.18324,-2.08188 -0.39377,-4.12088 -0.63938,-6.22615 l -0.15595,-1.40352 c -0.72905,-7.35675 -2.22613,-14.61993 -4.46395,-21.68429 -4.64618,-13.04344 -10.79042,-14.95058 -17.90699,-27.90113 -17.50201,4.86452 -34.76135,5.65739 -51.763356,5.66128 -13.146249,0 -27.841239,-0.97855 -39.478709,-6.26902 -11.81725,1.43953 -17.38175,2.3681 -21.86265,9.50296 -6.25344,10.02343 -7.616487,19.72034 -10.349447,31.33832 -2.32749,9.92207 -4.955189,19.55465 -4.444469,29.46503 z"
     fill="#644c4c"
     id="path10-1"
     style="fill:#f7f7f7;fill-opacity:1;stroke:#f7f7f7;stroke-width:6.00003;stroke-miterlimit:4;stroke-dasharray:none;stroke-opacity:1"
     sodipodi:nodetypes="cccccccccccccccccsccccccccccccccccccccc" />
  <g
     id="g961"
     transform="matrix(0.99919355,-0.04592853,0.04015276,1.1429226,-68.431322,28.251395)"
     style="fill:#f7f7f7;fill-opacity:1;stroke:#f7f7f7;stroke-width:5.61009;stroke-miterlimit:4;stroke-dasharray:none;stroke-opacity:1">
    <path
       style="fill:#f7f7f7;fill-opacity:1;stroke:#f7f7f7;stroke-width:5.61009;stroke-linecap:butt;stroke-linejoin:miter;stroke-miterlimit:4;stroke-dasharray:none;stroke-opacity:1"
       d="m 153.59972,137.14221 20.66921,-0.50269 z"
       id="path929" />
    <path
       d="m 125.96209,134.0084 c -6.07385,0 -12.21423,0.18255 -18.26068,0.54331 -8.782031,0.51725 -12.609489,5.02461 -12.40598,14.61742 0.07434,3.88581 0.160449,7.39347 0.387433,10.94024 0.121326,1.83425 0.293517,3.59895 1.08407,5.11153 l 0.09788,0.18691 0.113491,0.17385 c 0.08606,0.14344 0.207417,0.3347 0.356134,0.53029 1.279735,1.72992 3.244332,2.4471 4.301002,2.71224 5.52986,1.43001 12.26901,2.09505 21.19585,2.09505 3.73354,0 7.40445,-0.10872 10.95406,-0.213 l 3.27564,-0.0913 c 0.35614,-0.009 0.70054,-0.013 1.03319,-0.013 0.65747,0 1.28756,0.0174 1.90199,0.0347 0.63009,0.0174 1.16233,0.026 1.6476,0.026 3.64353,0 6.79395,-0.39989 8.4807,-5.28539 2.16419,-6.32422 3.65136,-13.64814 4.42624,-21.77617 0.30134,-3.13821 0.0665,-4.89855 -0.84142,-6.28945 l -0.10957,-0.16952 -0.12915,-0.16081 c -1.24452,-1.56477 -3.15825,-2.00376 -5.85078,-2.2037 -7.14225,-0.50854 -14.4293,-0.76934 -21.65766,-0.76934 z m 0,0"
       id="path20"
       style="fill:#f7f7f7;fill-opacity:1;stroke:#f7f7f7;stroke-width:5.61009;stroke-miterlimit:4;stroke-dasharray:none;stroke-opacity:1" />
    <path
       d="m 202.05738,134.00406 c -7.22052,0 -14.5154,0.26078 -21.69287,0.76932 -2.76688,0.20864 -4.71975,0.66937 -5.94861,2.32542 -1.19755,1.62995 -1.26409,3.77714 -1.00188,6.50677 0.79054,8.1454 2.2816,15.46934 4.43798,21.76313 1.6437,4.89419 4.79803,5.29407 8.44156,5.29407 0.4344,0 0.91969,-0.009 1.45193,-0.0174 l 0.18003,-0.004 c 0.6692,-0.0217 1.29537,-0.0392 1.94895,-0.0392 0.33265,0 0.67312,0.004 1.02535,0.0174 l 3.2639,0.0869 c 3.57701,0.10427 7.24792,0.21299 10.97755,0.21299 8.92292,0 15.66207,-0.66503 21.20367,-2.09504 1.79633,-0.45203 3.3461,-1.44305 4.33624,-2.78179 0.16828,-0.21731 0.36004,-0.51724 0.5244,-0.83018 0.78664,-1.5039 0.95884,-3.27295 1.07624,-5.0985 0.23482,-3.60327 0.317,-7.28914 0.39918,-10.85331 0.20351,-9.68409 -3.62787,-14.19146 -12.41773,-14.7087 -6.00731,-0.3651 -12.13204,-0.54765 -18.20589,-0.54765 z m 0,0"
       id="path22-9"
       style="fill:#f7f7f7;fill-opacity:1;stroke:#f7f7f7;stroke-width:5.61009;stroke-miterlimit:4;stroke-dasharray:none;stroke-opacity:1" />
  </g>
</svg>
