<?xml version="1.0" encoding="UTF-8" standalone="no"?>
<svg
   xmlns:dc="http://purl.org/dc/elements/1.1/"
   xmlns:cc="http://creativecommons.org/ns#"
   xmlns:rdf="http://www.w3.org/1999/02/22-rdf-syntax-ns#"
   xmlns:svg="http://www.w3.org/2000/svg"
   xmlns="http://www.w3.org/2000/svg"
   xmlns:sodipodi="http://sodipodi.sourceforge.net/DTD/sodipodi-0.dtd"
   xmlns:inkscape="http://www.inkscape.org/namespaces/inkscape"
   height="381.61392pt"
   viewBox="-89 0 329.61488 381.61566"
   width="329.61487pt"
   version="1.1"
   id="svg28"
   sodipodi:docname="hex.svg"
   inkscape:version="1.0.1 (3bc2e813f5, 2020-09-07)"
   inkscape:export-filename="C:\Users\Tan\Documents\GitHub\_dynastyprocess\graphics\tanho.ca\hex.png"
   inkscape:export-xdpi="95.889999"
   inkscape:export-ydpi="95.889999">
  <metadata
     id="metadata34">
    <rdf:RDF>
      <cc:Work
         rdf:about="">
        <dc:format>image/svg+xml</dc:format>
        <dc:type
           rdf:resource="http://purl.org/dc/dcmitype/StillImage" />
        <dc:title />
      </cc:Work>
    </rdf:RDF>
  </metadata>
  <defs
     id="defs32" />
  <sodipodi:namedview
     pagecolor="#ffffff"
     bordercolor="#666666"
     borderopacity="1"
     objecttolerance="10"
     gridtolerance="10"
     guidetolerance="10"
     inkscape:pageopacity="0"
     inkscape:pageshadow="2"
     inkscape:window-width="1333"
     inkscape:window-height="1040"
     id="namedview30"
     showgrid="false"
     inkscape:zoom="0.70710678"
     inkscape:cx="-181.14011"
     inkscape:cy="135.66218"
     inkscape:window-x="130"
     inkscape:window-y="0"
     inkscape:window-maximized="0"
     inkscape:current-layer="svg28"
     inkscape:document-rotation="0" />
  <path
     sodipodi:type="star"
     style="fill:#ffffff;fill-opacity:1;stroke:#333333;stroke-width:20.1341;stroke-miterlimit:4;stroke-dasharray:none;stroke-opacity:1"
     id="path954"
     sodipodi:sides="6"
     sodipodi:cx="111.84054"
     sodipodi:cy="231.91202"
     sodipodi:r1="227.58188"
     sodipodi:r2="86.470001"
     sodipodi:arg1="1.5707963"
     sodipodi:arg2="2.0943951"
     inkscape:flatsided="true"
     inkscape:rounded="0"
     inkscape:randomized="0"
     d="M 111.84054,459.4939 -85.251147,345.70296 -85.251153,118.12108 111.84053,4.3301392 308.93222,118.12107 l 1e-5,227.58188 z"
     transform="matrix(0.79556473,0,0,0.79767059,-13.169074,5.8184397)" />
  <path
     d="m 74.159121,327.00031 c -0.77857,-2.89706 -1.3934,-5.8008 -2.04499,-8.87496 l -0.10358,-0.48117 c -1.56715,-7.42811 -3.18777,-15.10348 -7.09729,-21.7029 -3.97636,-6.71637 -10.08458,-11.92239 -15.99565,-16.95799 -5.750687,-4.88858 -11.170564,-9.49982 -15.113503,-15.53118 l -1.142787,-1.7476 1.032515,-1.81442 c 3.398285,-5.98793 5.155904,-11.91905 5.079045,-17.15848 l -0.08688,-6.01132 5.212704,2.9973 c 0.701716,0.40098 1.406766,0.78191 2.101796,1.12608 8.68116,4.4141 18.81286,7.64148 28.83728,7.64148 10.56909,0 21.31411,-1.41025 30.346119,-6.26876 1.14279,-0.61149 2.72215,-1.6319 3.9351,-2.39375 l 4.36824,-2.70994 -0.20945,3.26985 c 0.95232,5.37309 2.95721,10.73616 5.95785,15.94552 l 1.41679,2.45599 -26.544699,22.80558 c -1.74424,1.50366 -3.50186,3.02069 -4.75826,4.91865 -2.17864,3.29136 -2.65647,7.35125 -3.12094,11.27748 l -0.0535,0.47116 c -1.14613,9.65019 -2.96055,19.30037 -5.39983,28.71331 l -3.24791,12.54724 z"
     id="path18"
     style="fill:#ebebeb;fill-opacity:1;stroke:#333333;stroke-width:5.13253;stroke-miterlimit:4;stroke-dasharray:none;stroke-opacity:1"
     sodipodi:nodetypes="ccccccccccccsccccccccccccc" />
  <path
     d="m 77.036571,249.32016 c -10.18501,0 -20.20661,-2.34116 -28.97428,-6.77334 -18.36904,-9.28457 -31.878188,-27.01622 -35.680047,-47.73309 -1.279775,0.63841 -3.8018259,0.007 -5.0636529,-0.31545 -2.452117,-2.91067 -6.52266403,-21.94661 -3.346729,-26.06253 1.660811,-0.38645 2.231075,-0.49942 3.863965,-0.34894 -1.630804,-11.08546 -1.113883,-22.8646 1.524081,-34.09679 2.3411509,-9.95824 6.2397479,-19.3362 11.5790279,-27.87374 4.01198,-6.419832 7.036806,-10.631902 12.332751,-10.631902 1.887591,0 3.941938,0.55027 6.663271,1.78754 9.974923,4.532242 20.736893,6.833372 31.975763,6.833372 13.65005,0 27.54688,-3.34831 41.300329,-9.951572 l 2.62464,-1.26061 1.65746,2.38783 c 6.47654,9.321272 10.83535,18.122272 14.14031,28.537402 1.90428,5.99629 3.18824,12.20601 3.81188,18.45909 0.0266,0.33683 0.0767,0.7437 0.13673,1.25061 1.24729,10.90871 0.89378,14.00024 0.52026,15.37758 l -0.20677,0.75703 c 2.21384,-0.84958 2.27164,-0.84931 4.57365,-1.00433 3.73721,3.84666 2.4872,28.44504 0.20757,31.55658 -0.37508,-0.0364 -2.20776,0.63077 -2.58128,0.61101 0.26347,20.53678 -11.77132,39.94186 -29.90359,50.41035 -9.161179,5.28927 -19.936479,8.08398 -31.155339,8.08398 z"
     fill="#ffdac4"
     id="path16-2"
     style="fill:#ebebeb;fill-opacity:1;stroke:#1a1a1a;stroke-width:5.13253;stroke-miterlimit:4;stroke-dasharray:none;stroke-opacity:1"
     sodipodi:nodetypes="ccccccccscscccccccccccccc" />
  <path
     d="m 121.30736,322.63995 c -8.86159,-11.85222 -18.59197,-23.32017 -28.917129,-34.08641 l -2.46268,-2.56626 2.65982,-2.35908 c 0.46781,-0.41768 0.95232,-0.83871 1.44686,-1.26307 l 26.711759,-22.94927 1.16284,5.71058 c 3.71572,18.24781 5.58361,36.90661 5.56022,55.46852 l -0.0134,10.26502 z m 0,0"
     fill="#b2eaf9"
     id="path2"
     style="fill:#666666;fill-opacity:1;stroke:#333333;stroke-width:5.13253;stroke-miterlimit:4;stroke-dasharray:none;stroke-opacity:1" />
  <path
     d="m 24.254169,321.91818 c -2.262179,-17.95041 -0.253956,-36.45885 5.81751,-53.51709 l 2.589642,-6.69658 3.301383,5.70082 c 3.722403,4.62795 8.330297,8.5475 12.791167,12.34007 l 0.27067,0.23391 c 2.9973,2.55957 5.82753,4.97546 8.4673,7.61856 l 2.25883,2.25885 -34.540837,39.63993 z"
     fill="#b2eaf9"
     id="path4"
     style="fill:#666666;fill-opacity:1;stroke:#333333;stroke-width:5.13253;stroke-miterlimit:4;stroke-dasharray:none;stroke-opacity:1"
     sodipodi:nodetypes="cccccccccc" />
  <path
     d="m 193.18788,304.19536 c -24.6026,-11.25303 -39.63701,-12.98151 -63.79749,-33.629 l -7.77227,-8.21335 1.91466,11.14383 c 3.25126,18.94284 4.52436,38.26325 3.73912,57.43999 -10.20487,-14.46525 -21.62938,-28.37248 -33.962779,-41.33407 l -3.38157,-3.61548 -2.34906,4.91531 c -0.81198,2.48941 -1.12942,5.2361 -1.41011,7.6286 l -0.0601,0.49453 c -1.55713,13.14872 -4.34392,26.21723 -8.27016,38.78787 l -0.28068,0.63154 c -0.2382,7.21649 -0.25763,3.34923 -1.02956,31.00388 -0.1179,4.22397 1.54645,-0.82408 4.05357,-0.0559 22.254279,-15.44816 86.437219,-53.36068 112.606459,-65.1978 z"
     fill="#5bd0fc"
     id="path22"
     style="fill:#666666;fill-opacity:1;stroke:#333333;stroke-width:5.13253;stroke-miterlimit:4;stroke-dasharray:none;stroke-opacity:1"
     sodipodi:nodetypes="ccccccccccccscc" />
  <path
     d="m 77.096281,336.7911 c -2.69991,-5.85093 -4.04653,-12.21644 -5.36307,-18.42156 -1.63732,-7.74889 -3.18442,-15.06673 -7.07724,-21.64276 -0.63823,-1.07929 -1.36667,-2.15525 -2.36911,-3.48849 l -2.53619,-3.38158 -32.318761,37.08372 c -0.421028,0.49119 -0.801954,0.82199 -1.199587,0.83202 h -0.103591 c -0.731776,0 -1.273101,-0.73512 -1.480267,-2.02159 -2.499429,-15.60136 -1.807746,-31.3063 2.055006,-46.68044 l 2.639769,-10.51897 -8.196642,7.0973 c -13.9730509,11.23097 -46.400893,17.04379 -66.040898,25.45152 110.766171,63.24584 85.983371,52.74382 120.701611,71.24294 1.5657,0.97236 0.29107,-3.70131 0.42211,-5.59338 0.63043,-9.10269 1.03579,-18.84578 1.19433,-29.25035 z"
     fill="#5bd0fc"
     id="path24"
     style="fill:#666666;fill-opacity:1;stroke:#333333;stroke-width:5.13253;stroke-miterlimit:4;stroke-dasharray:none;stroke-opacity:1"
     sodipodi:nodetypes="cccccccsccccccscc" />
  <path
     d="M 6.4718501,161.56693 C 0.55840507,134.30589 10.210821,81.932998 12.634839,70.866838 l 1.650803,-7.46701 4.458865,6.21306 c 2.41452,3.36499 5.329297,6.25641 8.664273,8.59424 -1.480737,-10.24172 1.130546,-21.02704 7.213544,-29.60459 l 3.611781,-5.09584 2.341159,5.78952 c 1.150572,2.84806 3.134868,5.29927 5.592747,6.91007 0.49691,-10.44515 6.17639,-20.786911 14.874,-27.003305 l 3.40834,-2.434534 1.70084,3.828553 c 2.03101,4.57225 6.29977,8.510856 12.01925,11.095466 3.67849,1.66749 7.64043,2.74802 11.47232,3.78853 l 0.0934,0.0267 c 3.06483,0.82708 5.62276,1.53409 8.22071,2.45788 5.552719,1.99098 12.749599,5.83288 15.557649,12.85299 0.77372,1.93763 2.38451,5.96628 4.72901,5.96628 0.24012,0 0.50024,-0.0334 0.78038,-0.10005 2.17439,-0.52026 2.74135,-3.34498 2.83139,-5.62277 l 0.86376,-21.67067 2.42159,10.29132 c 2.61085,11.7583 10.44515,22.77455 11.59238,35.01724 l 0.30016,-0.36684 5.52271,-8.26408 -2.62554,9.91155 c -3.77848,23.258102 0.78249,43.616262 -1.11759,64.914482 l -1.90335,5.9596 -0.71036,-7.9139 c -0.15674,-1.78087 -0.33684,-3.52507 -0.54694,-5.32596 l -0.1334,-1.20059 c -0.62364,-6.2931 -1.90427,-12.50616 -3.81854,-18.54914 -3.97443,-11.15759 -9.23032,-12.78899 -15.31796,-23.867132 -14.97154,4.161202 -29.735489,4.839432 -44.279319,4.842762 -11.24554,0 -23.8159,-0.83707 -33.770798,-5.362632 -10.10869,1.231402 -14.868664,2.025712 -18.701707,8.129002 -5.349306,8.57423 -6.515281,16.86914 -8.853104,26.80737 -1.9909769,8.48752 -4.2387579,16.7274 -3.8018789,25.20492 z"
     fill="#644c4c"
     id="path10-1"
     style="fill:#262626;fill-opacity:1;stroke:#1a1a1a;stroke-width:5.13253;stroke-miterlimit:4;stroke-dasharray:none;stroke-opacity:1"
     sodipodi:nodetypes="cccccccccccccccccsccccccccccccccccccccc" />
  <g
     id="g961"
     transform="matrix(0.85472825,-0.0392881,0.0343474,0.97767668,-71.405327,24.166757)"
     style="fill:none;fill-opacity:1;stroke:#1a1a1a;stroke-width:5.61009;stroke-miterlimit:4;stroke-dasharray:none;stroke-opacity:1">
    <path
       style="fill:none;fill-opacity:1;stroke:#1a1a1a;stroke-width:5.61009;stroke-linecap:butt;stroke-linejoin:miter;stroke-miterlimit:4;stroke-dasharray:none;stroke-opacity:1"
       d="m 153.59972,137.14221 20.66921,-0.50269 z"
       id="path929" />
    <path
       d="m 125.96209,134.0084 c -6.07385,0 -12.21423,0.18255 -18.26068,0.54331 -8.782031,0.51725 -12.609489,5.02461 -12.40598,14.61742 0.07434,3.88581 0.160449,7.39347 0.387433,10.94024 0.121326,1.83425 0.293517,3.59895 1.08407,5.11153 l 0.09788,0.18691 0.113491,0.17385 c 0.08606,0.14344 0.207417,0.3347 0.356134,0.53029 1.279735,1.72992 3.244332,2.4471 4.301002,2.71224 5.52986,1.43001 12.26901,2.09505 21.19585,2.09505 3.73354,0 7.40445,-0.10872 10.95406,-0.213 l 3.27564,-0.0913 c 0.35614,-0.009 0.70054,-0.013 1.03319,-0.013 0.65747,0 1.28756,0.0174 1.90199,0.0347 0.63009,0.0174 1.16233,0.026 1.6476,0.026 3.64353,0 6.79395,-0.39989 8.4807,-5.28539 2.16419,-6.32422 3.65136,-13.64814 4.42624,-21.77617 0.30134,-3.13821 0.0665,-4.89855 -0.84142,-6.28945 l -0.10957,-0.16952 -0.12915,-0.16081 c -1.24452,-1.56477 -3.15825,-2.00376 -5.85078,-2.2037 -7.14225,-0.50854 -14.4293,-0.76934 -21.65766,-0.76934 z m 0,0"
       id="path20"
       style="fill:none;fill-opacity:1;stroke:#1a1a1a;stroke-width:5.61009;stroke-miterlimit:4;stroke-dasharray:none;stroke-opacity:1" />
    <path
       d="m 202.05738,134.00406 c -7.22052,0 -14.5154,0.26078 -21.69287,0.76932 -2.76688,0.20864 -4.71975,0.66937 -5.94861,2.32542 -1.19755,1.62995 -1.26409,3.77714 -1.00188,6.50677 0.79054,8.1454 2.2816,15.46934 4.43798,21.76313 1.6437,4.89419 4.79803,5.29407 8.44156,5.29407 0.4344,0 0.91969,-0.009 1.45193,-0.0174 l 0.18003,-0.004 c 0.6692,-0.0217 1.29537,-0.0392 1.94895,-0.0392 0.33265,0 0.67312,0.004 1.02535,0.0174 l 3.2639,0.0869 c 3.57701,0.10427 7.24792,0.21299 10.97755,0.21299 8.92292,0 15.66207,-0.66503 21.20367,-2.09504 1.79633,-0.45203 3.3461,-1.44305 4.33624,-2.78179 0.16828,-0.21731 0.36004,-0.51724 0.5244,-0.83018 0.78664,-1.5039 0.95884,-3.27295 1.07624,-5.0985 0.23482,-3.60327 0.317,-7.28914 0.39918,-10.85331 0.20351,-9.68409 -3.62787,-14.19146 -12.41773,-14.7087 -6.00731,-0.3651 -12.13204,-0.54765 -18.20589,-0.54765 z m 0,0"
       id="path22-9"
       style="fill:none;fill-opacity:1;stroke:#1a1a1a;stroke-width:5.61009;stroke-miterlimit:4;stroke-dasharray:none;stroke-opacity:1" />
  </g>
  <path
     sodipodi:type="star"
     style="fill:none;fill-opacity:1;stroke:#333333;stroke-width:20.1341;stroke-miterlimit:4;stroke-dasharray:none;stroke-opacity:1"
     id="path954-6"
     sodipodi:sides="6"
     sodipodi:cx="111.84054"
     sodipodi:cy="231.91202"
     sodipodi:r1="227.58188"
     sodipodi:r2="86.470001"
     sodipodi:arg1="1.5707963"
     sodipodi:arg2="2.0943951"
     inkscape:flatsided="true"
     inkscape:rounded="0"
     inkscape:randomized="0"
     d="M 111.84054,459.4939 -85.251147,345.70296 -85.251153,118.12108 111.84053,4.3301392 308.93222,118.12107 l 1e-5,227.58188 z"
     transform="matrix(0.79556476,0,0,0.79767062,-13.169083,5.8184293)" />
</svg>
