<?xml version="1.0" encoding="UTF-8" standalone="no"?>
<svg
   xmlns:dc="http://purl.org/dc/elements/1.1/"
   xmlns:cc="http://creativecommons.org/ns#"
   xmlns:rdf="http://www.w3.org/1999/02/22-rdf-syntax-ns#"
   xmlns:svg="http://www.w3.org/2000/svg"
   xmlns="http://www.w3.org/2000/svg"
   xmlns:sodipodi="http://sodipodi.sourceforge.net/DTD/sodipodi-0.dtd"
   xmlns:inkscape="http://www.inkscape.org/namespaces/inkscape"
   width="207.26576mm"
   height="239.83647mm"
   viewBox="0 0 207.26576 239.83647"
   version="1.1"
   id="svg1467"
   sodipodi:docname="ffsimulator.svg"
   inkscape:export-filename="C:\Users\Tan\Documents\GitHub\_dynastyprocess\graphics\packages\ffsimulator\ffsimulator-header-inverse.png"
   inkscape:export-xdpi="39.838581"
   inkscape:export-ydpi="39.838581"
   inkscape:version="1.0.1 (3bc2e813f5, 2020-09-07)">
  <defs
     id="defs1461" />
  <sodipodi:namedview
     id="base"
     pagecolor="#ffffff"
     bordercolor="#666666"
     borderopacity="1.0"
     inkscape:pageopacity="0.0"
     inkscape:pageshadow="2"
     inkscape:zoom="0.22783654"
     inkscape:cx="1156.7112"
     inkscape:cy="515.38394"
     inkscape:document-units="mm"
     inkscape:current-layer="layer1"
     inkscape:document-rotation="0"
     showgrid="false"
     inkscape:window-width="1920"
     inkscape:window-height="1017"
     inkscape:window-x="-8"
     inkscape:window-y="-8"
     inkscape:window-maximized="1" />
  <metadata
     id="metadata1464">
    <rdf:RDF>
      <cc:Work
         rdf:about="">
        <dc:format>image/svg+xml</dc:format>
        <dc:type
           rdf:resource="http://purl.org/dc/dcmitype/StillImage" />
      </cc:Work>
    </rdf:RDF>
  </metadata>
  <g
     inkscape:label="Layer 1"
     inkscape:groupmode="layer"
     id="layer1"
     transform="translate(-4.6428166,-49.996627)">
    <path
       transform="matrix(-0.95583528,0,0,0.95788252,271.27074,-222.13291)"
       inkscape:export-ydpi="53.799995"
       inkscape:export-xdpi="53.799995"
       inkscape:randomized="0"
       inkscape:rounded="0"
       inkscape:flatsided="true"
       sodipodi:arg2="3.1415491"
       sodipodi:arg1="2.6179504"
       sodipodi:r2="85.672287"
       sodipodi:r1="120.00529"
       sodipodi:cy="409.28586"
       sodipodi:cx="170.52629"
       sodipodi:sides="6"
       id="path821-9"
       style="fill:#333333;fill-opacity:1;stroke:#d31027;stroke-width:8.8832375;stroke-linecap:round;stroke-linejoin:miter;stroke-miterlimit:4;stroke-dasharray:none;stroke-opacity:1;paint-order:normal"
       sodipodi:type="star"
       d="m 66.601273,469.29302 -0.0052,-120.00529 103.925015,-60.00716 103.93024,59.99813 0.005,120.00528 -103.92502,60.00717 z" />
    <path
       d="m 111.09532,285.40641 31.08498,-22.28527 v -14.12179 c 7.52271,-6.74772 15.36389,-14.66961 18.67404,-19.534 5.61819,-8.24673 8.88373,-17.89272 9.44429,-27.89114 l 0.14437,-2.58822 h 1.90244 c 3.33776,0 6.1872,-2.13391 7.25517,-5.1107 h 4.18706 c 4.62872,0 8.39538,-3.76453 8.39538,-8.39323 v -35.31827 c 0,-4.62869 -3.76666,-8.39533 -8.39538,-8.39533 h -4.18706 c -1.0064,-2.80485 -3.59468,-4.8602 -6.68402,-5.08949 -1.49266,-10.92417 -6.22116,-21.15188 -13.52304,-29.12898 C 141.43292,87.937453 115.03445,87.644448 113.5503,87.644448 h -0.0298 -7.04498 c -1.14657,0.01119 -27.785007,0.144364 -45.879417,19.901292 -7.304,7.97499 -12.03037,18.20271 -13.52514,29.13111 -3.09785,0.2208 -5.69671,2.28038 -6.70526,5.09161 h -4.18707 c -4.62869,0 -8.39536,3.76664 -8.39536,8.39533 v 13.58248 h -6.35064 c -3.63529,0.78269 -3.39354,0.55345 -3.39354,17.37818 v 50.07239 c -0.12613,2.21255 52.49972,27.03094 93.056227,54.20957 z m 68.95542,-135.48478 h 3.73484 c 0.13377,0 0.24202,0.10822 0.24202,0.24205 v 35.31615 c 0,0.13376 -0.10823,0.24204 -0.24202,0.24204 h -3.73484 z m -95.116338,118.4717 1.026231,-12.45952 c 3.34201,2.66468 6.12986,4.6117 7.73079,5.29539 5.18076,2.20819 10.741587,3.3144 16.302397,3.3144 5.56083,0 11.12162,-1.10408 16.30027,-3.3144 1.60307,-0.68369 4.39088,-2.63284 7.73079,-5.29539 l 0.30356,10.07101 c -23.23312,19.40159 -23.52344,22.59513 -49.394038,2.38851 z M 66.609253,113.05338 C 82.219453,96.007837 106.21868,95.797653 106.46498,95.797653 h 7.06832 0.001 c 0.35457,0 24.19452,0.167712 39.84293,17.257837 5.9345,6.48231 9.86254,14.73751 11.29148,23.60213 H 55.314993 c 1.43108,-8.86884 5.35912,-17.12408 11.29364,-23.60424 z m -18.54027,31.75756 h 2.67317 0.068 121.087317 v 46.02163 h -45.35703 c -2.17632,0 -4.3102,-0.59452 -6.1723,-1.71985 -6.40588,-3.86858 -14.36384,-3.86858 -20.769727,0 -1.86209,1.12533 -3.99599,1.71985 -6.17234,1.71985 h -7.36134 c -2.25065,0 -4.07663,1.82599 -4.07663,4.07665 0,2.25066 1.82598,4.07668 4.07663,4.07668 h 7.36134 c 3.66053,0 7.253077,-1.00009 10.386997,-2.89405 3.80704,-2.29734 8.53553,-2.29734 12.34041,0 3.13391,1.89396 6.72435,2.89405 10.38484,2.89405 h 35.73869 l -0.12101,2.12961 c -0.47774,8.52063 -3.25709,16.73551 -8.04077,23.75926 -5.8857,8.64377 -27.28177,27.26052 -31.0187,28.85295 -8.32955,3.55222 -17.87995,3.55222 -26.207407,0 -1.22723,-0.52229 -5.71157,-3.79211 -12.25332,-9.56952 -0.034,-0.032 -0.07,-0.0635 -0.10614,-0.0934 -0.80472,-0.71129 -1.63916,-1.46082 -2.50332,-2.2464 -7.48874,-6.81141 -13.67803,-13.30434 -16.15587,-16.94362 -4.7837,-7.02376 -7.56517,-15.24075 -8.0429,-23.76352 l -0.1189,-2.12535 h 9.36994 c 2.25278,0 4.07664,-1.82604 4.07664,-4.07669 0,-2.25278 -1.82386,-4.07667 -4.07664,-4.07667 h -19.00961 z m -12.13018,5.35274 c 0,-0.13377 0.10836,-0.24205 0.24205,-0.24205 h 3.73481 v 35.80024 h -3.73481 c -0.13376,0 -0.24205,-0.10824 -0.24205,-0.24204 z m -14.89785,29.67276 c -10e-7,-3.22097 0,0 0.1771,-11.80062 h 6.35278 l 0.21465,17.44401 c 0.057,4.62833 3.76668,8.39536 8.39537,8.39536 h 4.18495 c 1.06799,2.97681 3.9174,5.11071 7.25729,5.11071 h 1.91943 l 0.14651,2.58398 c 0.56055,10.00057 3.82612,19.64863 9.44428,27.89538 3.31014,4.86439 11.15135,12.78626 18.67403,19.53396 l -1.526361,13.15905 -6.03249,-1.89824 c 0,0 -33.418539,-18.37464 -49.207519,-29.06319 z"
       id="path6-2-3"
       style="fill:#d31027;fill-opacity:1;stroke-width:0.543554"
       sodipodi:nodetypes="ccccccscsssscccscccccssccscccsssscccccscccccscsccccccccccsccsssssccscccccccccccsssccssccssssccsscscccccccs"
       inkscape:export-xdpi="53.799995"
       inkscape:export-ydpi="53.799995" />
    <g
       inkscape:export-ydpi="53.799995"
       inkscape:export-xdpi="53.799995"
       style="fill:#d31027;fill-opacity:1;stroke:#000000;stroke-width:3.50768"
       id="g14-39-6"
       transform="matrix(0.03805321,0.01471653,-0.01466592,0.03850288,131.48701,141.36923)">
      <g
         style="fill:#d31027;fill-opacity:1;stroke:#000000;stroke-width:3.50768"
         id="g12-2-9"
         transform="matrix(0.0997661,-0.00658435,-0.00663306,-0.09979668,1.9631403,544.88388)">
        <path
           style="fill:#d31027;fill-opacity:1;stroke:#000000;stroke-width:3.50768"
           id="path4-6"
           d="m 7412.9,5004.9 c -120.7,-7.7 -291.2,-19.2 -377.5,-26.8 l -157.1,-15.3 306.6,-183.9 c 1086.4,-659.1 1904.5,-1454.2 2513.8,-2452.4 130.3,-212.7 143.7,-229.9 153.3,-182 5.7,30.6 23,264.4 34.5,523.1 32.6,620.8 3.8,1444.6 -55.6,1609.4 -65.1,187.8 -120.7,274 -260.6,413.8 -233.7,233.7 -387,291.2 -854.5,314.2 -377.5,21 -971.5,19.1 -1302.9,-0.1 z"
           inkscape:connector-curvature="0" />
        <path
           style="fill:#d31027;fill-opacity:1;stroke:#000000;stroke-width:3.50768"
           id="path6-4"
           d="M 5592.7,4707.9 C 4397.1,4357.3 3387.4,3736.5 2383.4,2732.5 1385.2,1732.4 751,703.5 406.1,-484.4 c -36.4,-126.4 -67.1,-256.7 -69,-289.3 -1.9,-74.7 333.4,-756.8 513.5,-1042.3 145.6,-229.9 335.3,-498.2 352.5,-498.2 5.8,1.9 67.1,101.5 136,224.2 124.5,222.2 538.4,864.1 689.8,1069.1 l 80.5,109.2 -212.6,214.7 c -182,183.9 -212.7,226.1 -212.7,277.8 0,82.4 72.8,155.2 155.2,155.2 51.7,0 92,-30.7 258.7,-195.4 l 199.2,-193.6 42.2,55.6 c 24.9,30.6 105.4,132.2 182,228 l 136,172.4 -222.2,224.2 c -203.1,205 -222.3,231.8 -222.3,295.1 0,53.6 13.4,80.5 55.6,116.9 90.1,78.5 143.7,53.6 383.2,-185.9 l 210.8,-208.8 176.3,205 176.3,205 -220.3,222.3 c -193.5,197.3 -218.4,229.9 -218.4,289.3 0,86.2 65.1,149.4 153.3,149.4 55.6,0 90.1,-26.8 277.8,-210.8 116.9,-115 218.4,-210.8 224.2,-210.8 5.7,0 93.9,90.1 197.3,201.2 l 187.8,203.1 -214.8,216.5 c -187.8,191.6 -212.7,224.2 -212.7,283.6 0,86.2 65.1,149.4 153.3,149.4 55.6,0 92,-26.8 279.7,-212.7 l 216.5,-214.6 149.4,136 c 82.4,72.8 174.4,160.9 205,193.5 l 57.5,59.4 -205,208.8 c -185.9,185.9 -205,214.6 -205,277.8 0,92 53.6,145.6 147.5,145.6 63.2,0 90,-19.2 285.5,-212.7 l 214.6,-212.7 193.5,168.6 193.5,168.6 -201.2,205 c -189.7,191.6 -201.2,206.9 -201.2,281.6 0,61.3 11.5,86.2 49.8,116.9 95.8,74.7 130.3,57.5 371.7,-182 l 226.1,-222.3 197.3,159 c 109.2,86.2 206.9,164.8 218.4,174.4 11.5,9.6 -55.6,90 -168.6,203.1 -220.3,222.3 -243.3,275.9 -151.4,367.9 99.6,99.6 136,84.3 377.5,-155.2 l 214.6,-210.8 293.1,201.2 c 306.6,212.7 745.3,492.4 963.7,613.1 70.9,40.2 128.4,80.5 128.4,90.1 0,24.9 -454.1,320 -737.6,479 -281.7,157.1 -779.8,400.4 -818.1,400.4 -13.3,-1.6 -124.4,-30.4 -245.1,-66.8 z"
           inkscape:connector-curvature="0" />
        <path
           style="fill:#d31027;fill-opacity:1;stroke:#000000;stroke-width:3.50768"
           id="path8-6"
           d="M 7401.4,3527.7 C 7000.9,3292 6361,2876.3 6255.6,2780.5 c -11.5,-9.6 51.7,-90 157.1,-197.3 147.5,-149.5 176.3,-187.8 176.3,-239.5 0,-82.4 -72.8,-155.2 -155.2,-155.2 -51.7,0 -92,30.7 -258.7,193.5 l -197.4,193.5 -201.2,-155.2 c -111.1,-86.2 -206.9,-166.7 -214.6,-176.3 -7.7,-11.5 61.3,-95.8 153.3,-187.8 147.5,-147.5 164.8,-172.4 164.8,-235.7 0,-53.6 -11.5,-80.5 -49.8,-109.2 -97.7,-76.6 -145.6,-57.5 -348.7,139.9 l -187.8,182 -185.8,-162.9 c -101.5,-90 -185.8,-168.6 -185.8,-176.3 0,-5.8 72.8,-86.2 162.9,-178.2 143.7,-145.6 162.9,-174.4 162.9,-235.7 0,-74.7 -51.7,-143.7 -109.2,-147.5 -88.1,-5.7 -122.6,15.3 -287.4,178.2 L 4677,1485.1 4473.9,1297.3 c -111.1,-105.4 -203.1,-193.5 -203.1,-199.3 0,-3.8 72.8,-84.3 162.9,-176.3 143.7,-145.6 162.9,-174.4 162.9,-235.7 0,-74.7 -51.7,-143.7 -111.1,-147.5 -84.3,-5.7 -120.7,15.3 -275.9,170.5 l -166.7,164.8 -42.2,-38.3 c -23,-19.2 -109.2,-113 -195.4,-205 L 3652,461.9 3818.7,293.3 c 134.1,-138 164.8,-180.1 164.8,-228 0,-88.1 -19.2,-120.7 -84.3,-147.5 -84.3,-36.4 -132.2,-9.6 -308.5,164.8 L 3435.5,233.9 3259,31.1 l -178.2,-205 172.4,-176.3 c 195.4,-199.2 216.5,-256.7 126.5,-344.9 -88.1,-90.1 -147.5,-69 -335.3,115 l -166.7,162.9 -160.9,-205 c -90,-115 -170.5,-218.4 -178.2,-233.7 -11.5,-17.2 38.3,-80.5 168.6,-210.8 220.3,-220.3 241.4,-274 147.5,-367.9 -92,-92 -147.5,-70.9 -348.7,128.4 -92,92 -174.4,160.9 -185.8,153.3 -49.8,-30.7 -544.1,-793.2 -768.3,-1186 l -139.9,-243.4 95.8,-111.1 c 51.7,-59.4 197.4,-208.8 321.9,-329.6 548,-530.7 1207.1,-982.9 1994.5,-1366.1 l 314.2,-151.4 128.4,32.6 c 208.8,51.7 580.5,176.3 825.8,277.8 992.5,408.1 1860.4,1032.7 2764.8,1992.6 867.9,917.8 1440.8,1912.1 1749.3,3023.4 l 65.1,235.7 -72.8,168.6 c -394.7,892.8 -986.7,1701.4 -1688,2304.9 -120.7,103.5 -224.2,187.8 -229.9,187.8 -7.7,0 -132.2,-70.9 -279.7,-155.2 z"
           inkscape:connector-curvature="0" />
        <path
           style="fill:#d31027;fill-opacity:1;stroke:#000000;stroke-width:3.50768"
           id="path10-9"
           d="m 143.7,-1898.3 c -34.5,-130.3 -55.6,-1013.6 -36.4,-1509.8 19.2,-482.8 24.9,-534.6 67.1,-653.3 130.3,-350.6 417.7,-601.6 770.2,-674.4 285.5,-61.3 1645.8,-57.5 2075,3.8 l 92,13.4 -162.9,93.9 c -249.1,141.8 -731.9,469.4 -965.6,651.4 -689.9,540.3 -1257,1176.4 -1703.4,1912.1 -103.5,170.5 -126.5,197.3 -136,162.9 z"
           inkscape:connector-curvature="0" />
      </g>
    </g>
    <text
       xml:space="preserve"
       style="font-weight:bold;font-size:141.111px;line-height:1.25;font-family:'IBM Plex Sans';-inkscape-font-specification:'IBM Plex Sans Bold';fill:#333333;fill-opacity:1;stroke:#e5e5e5;stroke-width:1;stroke-miterlimit:4;stroke-dasharray:none;stroke-opacity:1"
       x="289.86676"
       y="221.91426"
       id="text929"
       inkscape:export-filename="C:\Users\Tan\Documents\GitHub\_dynastyprocess\graphics\packages\ffpros\ffpros-header.png"
       inkscape:export-xdpi="51.049999"
       inkscape:export-ydpi="51.049999"><tspan
         sodipodi:role="line"
         x="289.86676"
         y="221.91426"
         style="font-size:141.111px;fill:#f2f2f2;fill-opacity:1;stroke:#333333;stroke-width:1;stroke-miterlimit:4;stroke-dasharray:none;stroke-opacity:1"
         id="tspan846">ffsimulator</tspan></text>
  </g>
</svg>
