<?xml version="1.0" encoding="UTF-8" standalone="no"?>
<svg
   xmlns:dc="http://purl.org/dc/elements/1.1/"
   xmlns:cc="http://creativecommons.org/ns#"
   xmlns:rdf="http://www.w3.org/1999/02/22-rdf-syntax-ns#"
   xmlns:svg="http://www.w3.org/2000/svg"
   xmlns="http://www.w3.org/2000/svg"
   xmlns:sodipodi="http://sodipodi.sourceforge.net/DTD/sodipodi-0.dtd"
   xmlns:inkscape="http://www.inkscape.org/namespaces/inkscape"
   width="205.52928mm"
   height="238.0325mm"
   viewBox="0 0 205.52928 238.0325"
   version="1.1"
   id="svg1489"
   inkscape:version="1.0.1 (3bc2e813f5, 2020-09-07)"
   sodipodi:docname="ffverse.svg"
   inkscape:export-filename="C:\Users\Tan\Documents\GitHub\_dynastyprocess\graphics\packages\ffverse.png"
   inkscape:export-xdpi="54.25"
   inkscape:export-ydpi="54.25">
  <defs
     id="defs1483">
    <rect
       x="4.4888892"
       y="345.02124"
       width="253.24405"
       height="325.05951"
       id="rect1019" />
  </defs>
  <sodipodi:namedview
     id="base"
     pagecolor="#ffffff"
     bordercolor="#666666"
     borderopacity="1.0"
     inkscape:pageopacity="0.0"
     inkscape:pageshadow="2"
     inkscape:zoom="0.11313709"
     inkscape:cx="-809.10733"
     inkscape:cy="-58.59771"
     inkscape:document-units="mm"
     inkscape:current-layer="layer1"
     inkscape:document-rotation="0"
     showgrid="false"
     inkscape:window-width="1920"
     inkscape:window-height="1017"
     inkscape:window-x="-8"
     inkscape:window-y="-8"
     inkscape:window-maximized="1" />
  <metadata
     id="metadata1486">
    <rdf:RDF>
      <cc:Work
         rdf:about="">
        <dc:format>image/svg+xml</dc:format>
        <dc:type
           rdf:resource="http://purl.org/dc/dcmitype/StillImage" />
        <dc:title />
      </cc:Work>
    </rdf:RDF>
  </metadata>
  <g
     inkscape:label="Layer 1"
     inkscape:groupmode="layer"
     id="layer1"
     transform="translate(486.2026,-59.000333)">
    <text
       xml:space="preserve"
       id="text1017"
       style="font-size:10.5833px;line-height:1.25;font-family:'Source Code Pro';-inkscape-font-specification:'Source Code Pro';white-space:pre;shape-inside:url(#rect1019);" />
    <path
       transform="matrix(0.93782326,0,0,0.94829428,-542.83603,-209.49902)"
       inkscape:export-ydpi="39.959999"
       inkscape:export-xdpi="39.959999"
       inkscape:randomized="0"
       inkscape:rounded="0.01"
       inkscape:flatsided="true"
       sodipodi:arg2="3.1415491"
       sodipodi:arg1="2.6179504"
       sodipodi:r2="85.672287"
       sodipodi:r1="120.00529"
       sodipodi:cy="409.28586"
       sodipodi:cx="170.52629"
       sodipodi:sides="6"
       id="path821-8-9-6-7"
       style="fill:#333333;fill-opacity:0.99;stroke:#d31027;stroke-width:8.32331;stroke-linecap:round;stroke-linejoin:miter;stroke-miterlimit:4;stroke-dasharray:none;stroke-opacity:1;paint-order:normal"
       sodipodi:type="star"
       d="m 66.601273,469.29302 c -0.600072,-1.03925 -0.605199,-118.96598 -0.0052,-120.00529 0.599981,-1.0393 102.724965,-60.00711 103.925015,-60.00716 1.20006,-5e-5 103.33017,58.95888 103.93024,59.99813 0.60007,1.03925 0.6052,118.96598 0.005,120.00528 -0.59998,1.03931 -102.72497,60.00711 -103.92502,60.00717 -1.20005,5e-5 -103.330166,-58.95888 -103.930237,-59.99813 z" />
    <path
       sodipodi:type="spiral"
       style="fill:none;fill-rule:evenodd;stroke:#e5e5e5;stroke-width:27.5993;stroke-linecap:round;stroke-miterlimit:4;stroke-dasharray:none;stroke-opacity:1"
       id="path895-4-6-6-6"
       sodipodi:cx="-112.20181"
       sodipodi:cy="194.78476"
       sodipodi:expansion="3"
       sodipodi:revolution="2.7842741"
       sodipodi:radius="459.70346"
       sodipodi:argument="-17.769922"
       sodipodi:t0="0.76683474"
       d="M -184.75157,388.96668 C -323.83876,369.71378 -404.14131,225.32725 -382.89374,93.649526 -352.45577,-94.983945 -155.40238,-202.62716 24.185867,-170.26155 158.43209,-146.06754 271.81042,-52.483887 330.12686,69.594422"
       transform="matrix(0.16940147,-0.01777098,0.01777098,0.16940147,-362.93653,139.59465)"
       inkscape:export-xdpi="39.959999"
       inkscape:export-ydpi="39.959999" />
    <path
       sodipodi:type="spiral"
       style="fill:none;fill-rule:evenodd;stroke:#e5e5e5;stroke-width:27.5993;stroke-linecap:round;stroke-miterlimit:4;stroke-dasharray:none;stroke-opacity:1"
       id="path895-4-0-2-7-6"
       sodipodi:cx="-112.20181"
       sodipodi:cy="194.78476"
       sodipodi:expansion="3"
       sodipodi:revolution="2.75986"
       sodipodi:radius="447.71542"
       sodipodi:argument="-17.769922"
       sodipodi:t0="0.75080681"
       d="m -105.00129,384.13806 c -124.76638,33.78962 -244.45489,-60.161 -273.69121,-179.21948 -42.28734,-172.205852 87.71485,-335.12803 252.71882,-372.29479 161.707265,-36.42419 328.8059,41.41223 420.87713,175.8429507"
       transform="matrix(-0.16382907,-0.04661222,0.04661222,-0.16382907,-414.5184,208.67437)"
       inkscape:export-xdpi="39.959999"
       inkscape:export-ydpi="39.959999" />
    <g
       inkscape:export-ydpi="39.959999"
       inkscape:export-xdpi="39.959999"
       style="fill:#d31027;fill-opacity:1;stroke:none;stroke-width:3.51539402;stroke-miterlimit:4;stroke-dasharray:none"
       id="g14-39-6-5-6-6-5"
       transform="matrix(-0.00754364,0.04236094,0.04273873,0.00783523,-399.99521,154.36803)">
      <g
         style="fill:#d31027;fill-opacity:1;stroke:none;stroke-width:35.15394025;stroke-miterlimit:4;stroke-dasharray:none"
         id="g12-2-6-9-6-0-8"
         transform="matrix(0.0997661,-0.00658435,-0.00663306,-0.09979668,1.9631403,544.88388)">
        <path
           style="fill:#d31027;fill-opacity:1;stroke:none;stroke-width:35.15394025;stroke-miterlimit:4;stroke-dasharray:none"
           id="path4-1-0-3-6-5"
           d="m 7412.9,5004.9 c -120.7,-7.7 -291.2,-19.2 -377.5,-26.8 l -157.1,-15.3 306.6,-183.9 c 1086.4,-659.1 1904.5,-1454.2 2513.8,-2452.4 130.3,-212.7 143.7,-229.9 153.3,-182 5.7,30.6 23,264.4 34.5,523.1 32.6,620.8 3.8,1444.6 -55.6,1609.4 -65.1,187.8 -120.7,274 -260.6,413.8 -233.7,233.7 -387,291.2 -854.5,314.2 -377.5,21 -971.5,19.1 -1302.9,-0.1 z"
           inkscape:connector-curvature="0" />
        <path
           style="fill:#d31027;fill-opacity:1;stroke:none;stroke-width:35.15394025;stroke-miterlimit:4;stroke-dasharray:none"
           id="path6-0-7-1-1-4"
           d="M 5592.7,4707.9 C 4397.1,4357.3 3387.4,3736.5 2383.4,2732.5 1385.2,1732.4 751,703.5 406.1,-484.4 c -36.4,-126.4 -67.1,-256.7 -69,-289.3 -1.9,-74.7 333.4,-756.8 513.5,-1042.3 145.6,-229.9 335.3,-498.2 352.5,-498.2 5.8,1.9 67.1,101.5 136,224.2 124.5,222.2 538.4,864.1 689.8,1069.1 l 80.5,109.2 -212.6,214.7 c -182,183.9 -212.7,226.1 -212.7,277.8 0,82.4 72.8,155.2 155.2,155.2 51.7,0 92,-30.7 258.7,-195.4 l 199.2,-193.6 42.2,55.6 c 24.9,30.6 105.4,132.2 182,228 l 136,172.4 -222.2,224.2 c -203.1,205 -222.3,231.8 -222.3,295.1 0,53.6 13.4,80.5 55.6,116.9 90.1,78.5 143.7,53.6 383.2,-185.9 l 210.8,-208.8 176.3,205 176.3,205 -220.3,222.3 c -193.5,197.3 -218.4,229.9 -218.4,289.3 0,86.2 65.1,149.4 153.3,149.4 55.6,0 90.1,-26.8 277.8,-210.8 116.9,-115 218.4,-210.8 224.2,-210.8 5.7,0 93.9,90.1 197.3,201.2 l 187.8,203.1 -214.8,216.5 c -187.8,191.6 -212.7,224.2 -212.7,283.6 0,86.2 65.1,149.4 153.3,149.4 55.6,0 92,-26.8 279.7,-212.7 l 216.5,-214.6 149.4,136 c 82.4,72.8 174.4,160.9 205,193.5 l 57.5,59.4 -205,208.8 c -185.9,185.9 -205,214.6 -205,277.8 0,92 53.6,145.6 147.5,145.6 63.2,0 90,-19.2 285.5,-212.7 l 214.6,-212.7 193.5,168.6 193.5,168.6 -201.2,205 c -189.7,191.6 -201.2,206.9 -201.2,281.6 0,61.3 11.5,86.2 49.8,116.9 95.8,74.7 130.3,57.5 371.7,-182 l 226.1,-222.3 197.3,159 c 109.2,86.2 206.9,164.8 218.4,174.4 11.5,9.6 -55.6,90 -168.6,203.1 -220.3,222.3 -243.3,275.9 -151.4,367.9 99.6,99.6 136,84.3 377.5,-155.2 l 214.6,-210.8 293.1,201.2 c 306.6,212.7 745.3,492.4 963.7,613.1 70.9,40.2 128.4,80.5 128.4,90.1 0,24.9 -454.1,320 -737.6,479 -281.7,157.1 -779.8,400.4 -818.1,400.4 -13.3,-1.6 -124.4,-30.4 -245.1,-66.8 z"
           inkscape:connector-curvature="0" />
        <path
           style="fill:#d31027;fill-opacity:1;stroke:none;stroke-width:35.15394025;stroke-miterlimit:4;stroke-dasharray:none"
           id="path8-5-6-0-0-5"
           d="M 7401.4,3527.7 C 7000.9,3292 6361,2876.3 6255.6,2780.5 c -11.5,-9.6 51.7,-90 157.1,-197.3 147.5,-149.5 176.3,-187.8 176.3,-239.5 0,-82.4 -72.8,-155.2 -155.2,-155.2 -51.7,0 -92,30.7 -258.7,193.5 l -197.4,193.5 -201.2,-155.2 c -111.1,-86.2 -206.9,-166.7 -214.6,-176.3 -7.7,-11.5 61.3,-95.8 153.3,-187.8 147.5,-147.5 164.8,-172.4 164.8,-235.7 0,-53.6 -11.5,-80.5 -49.8,-109.2 -97.7,-76.6 -145.6,-57.5 -348.7,139.9 l -187.8,182 -185.8,-162.9 c -101.5,-90 -185.8,-168.6 -185.8,-176.3 0,-5.8 72.8,-86.2 162.9,-178.2 143.7,-145.6 162.9,-174.4 162.9,-235.7 0,-74.7 -51.7,-143.7 -109.2,-147.5 -88.1,-5.7 -122.6,15.3 -287.4,178.2 L 4677,1485.1 4473.9,1297.3 c -111.1,-105.4 -203.1,-193.5 -203.1,-199.3 0,-3.8 72.8,-84.3 162.9,-176.3 143.7,-145.6 162.9,-174.4 162.9,-235.7 0,-74.7 -51.7,-143.7 -111.1,-147.5 -84.3,-5.7 -120.7,15.3 -275.9,170.5 l -166.7,164.8 -42.2,-38.3 c -23,-19.2 -109.2,-113 -195.4,-205 L 3652,461.9 3818.7,293.3 c 134.1,-138 164.8,-180.1 164.8,-228 0,-88.1 -19.2,-120.7 -84.3,-147.5 -84.3,-36.4 -132.2,-9.6 -308.5,164.8 L 3435.5,233.9 3259,31.1 l -178.2,-205 172.4,-176.3 c 195.4,-199.2 216.5,-256.7 126.5,-344.9 -88.1,-90.1 -147.5,-69 -335.3,115 l -166.7,162.9 -160.9,-205 c -90,-115 -170.5,-218.4 -178.2,-233.7 -11.5,-17.2 38.3,-80.5 168.6,-210.8 220.3,-220.3 241.4,-274 147.5,-367.9 -92,-92 -147.5,-70.9 -348.7,128.4 -92,92 -174.4,160.9 -185.8,153.3 -49.8,-30.7 -544.1,-793.2 -768.3,-1186 l -139.9,-243.4 95.8,-111.1 c 51.7,-59.4 197.4,-208.8 321.9,-329.6 548,-530.7 1207.1,-982.9 1994.5,-1366.1 l 314.2,-151.4 128.4,32.6 c 208.8,51.7 580.5,176.3 825.8,277.8 992.5,408.1 1860.4,1032.7 2764.8,1992.6 867.9,917.8 1440.8,1912.1 1749.3,3023.4 l 65.1,235.7 -72.8,168.6 c -394.7,892.8 -986.7,1701.4 -1688,2304.9 -120.7,103.5 -224.2,187.8 -229.9,187.8 -7.7,0 -132.2,-70.9 -279.7,-155.2 z"
           inkscape:connector-curvature="0" />
        <path
           style="fill:#d31027;fill-opacity:1;stroke:none;stroke-width:35.15394025;stroke-miterlimit:4;stroke-dasharray:none"
           id="path10-5-6-5-4-9"
           d="m 143.7,-1898.3 c -34.5,-130.3 -55.6,-1013.6 -36.4,-1509.8 19.2,-482.8 24.9,-534.6 67.1,-653.3 130.3,-350.6 417.7,-601.6 770.2,-674.4 285.5,-61.3 1645.8,-57.5 2075,3.8 l 92,13.4 -162.9,93.9 c -249.1,141.8 -731.9,469.4 -965.6,651.4 -689.9,540.3 -1257,1176.4 -1703.4,1912.1 -103.5,170.5 -126.5,197.3 -136,162.9 z"
           inkscape:connector-curvature="0" />
      </g>
    </g>
    <path
       sodipodi:type="star"
       style="opacity:0.999;fill:#d31027;fill-opacity:1;stroke:#f2f2f2;stroke-width:2.5;stroke-linecap:round;stroke-miterlimit:4;stroke-dasharray:none;stroke-opacity:1;stroke-linejoin:bevel"
       id="path1128-56-2-1-9-5"
       sodipodi:sides="6"
       sodipodi:cx="-314.05292"
       sodipodi:cy="137.422"
       sodipodi:r1="17.346987"
       sodipodi:r2="15.022929"
       sodipodi:arg1="1.5707963"
       sodipodi:arg2="2.0943951"
       inkscape:flatsided="true"
       inkscape:rounded="-3.469447e-18"
       inkscape:randomized="0"
       d="m -314.05292,154.76898 -15.02293,-8.67349 0,-17.34699 15.02293,-8.67349 15.02293,8.67349 0,17.34699 z"
       inkscape:transform-center-x="-2.1670865e-05"
       inkscape:transform-center-y="-6.8161402e-06"
       inkscape:export-xdpi="39.959999"
       inkscape:export-ydpi="39.959999" />
    <path
       sodipodi:type="star"
       style="fill:#b191ff;fill-opacity:1;stroke:#ffffff;stroke-width:0.264583;stroke-opacity:1"
       id="path2243-0-0-53-4-1-4-6"
       sodipodi:sides="4"
       sodipodi:cx="192.71777"
       sodipodi:cy="131.86382"
       sodipodi:r1="4.840457"
       sodipodi:r2="2.4202285"
       sodipodi:arg1="0.89605538"
       sodipodi:arg2="1.6814535"
       inkscape:flatsided="false"
       inkscape:rounded="0.03"
       inkscape:randomized="0.008"
       d="m 195.76927,135.67826 c -0.0827,0.0678 -3.23439,-1.40168 -3.34068,-1.41455 -0.10629,-0.0129 -3.41294,0.68595 -3.47941,0.60238 -0.0665,-0.0836 1.36942,-3.15252 1.38079,-3.25869 0.0114,-0.10618 -0.71546,-3.48799 -0.63225,-3.55524 0.0832,-0.0672 3.21851,1.42212 3.32494,1.43381 0.10644,0.0117 3.42797,-0.72236 3.49515,-0.63879 0.0672,0.0836 -1.41555,3.16745 -1.42755,3.27335 -0.012,0.10589 0.76167,3.48996 0.67901,3.55773 z"
       inkscape:transform-center-x="-0.0081840525"
       inkscape:transform-center-y="-0.12944179"
       transform="rotate(85.387813,-65.959426,-207.09926)"
       inkscape:export-xdpi="39.959999"
       inkscape:export-ydpi="39.959999" />
    <path
       sodipodi:type="star"
       style="fill:#b191ff;fill-opacity:1;stroke:#ffffff;stroke-width:0.264583;stroke-opacity:1"
       id="path2243-0-0-53-4-9-8-8"
       sodipodi:sides="4"
       sodipodi:cx="192.71777"
       sodipodi:cy="131.86382"
       sodipodi:r1="4.840457"
       sodipodi:r2="2.4202285"
       sodipodi:arg1="0.89605538"
       sodipodi:arg2="1.6814535"
       inkscape:flatsided="false"
       inkscape:rounded="0.03"
       inkscape:randomized="0.008"
       d="m 195.76927,135.67826 c -0.0827,0.0678 -3.23439,-1.40168 -3.34068,-1.41455 -0.10629,-0.0129 -3.41294,0.68595 -3.47941,0.60238 -0.0665,-0.0836 1.36942,-3.15252 1.38079,-3.25869 0.0114,-0.10618 -0.71546,-3.48799 -0.63225,-3.55524 0.0832,-0.0672 3.21851,1.42212 3.32494,1.43381 0.10644,0.0117 3.42797,-0.72236 3.49515,-0.63879 0.0672,0.0836 -1.41555,3.16745 -1.42755,3.27335 -0.012,0.10589 0.76167,3.48996 0.67901,3.55773 z"
       inkscape:transform-center-x="-0.0081840525"
       inkscape:transform-center-y="-0.12944179"
       transform="rotate(85.387813,-151.3805,-139.41901)"
       inkscape:export-xdpi="39.959999"
       inkscape:export-ydpi="39.959999" />
    <path
       sodipodi:type="star"
       style="fill:#b191ff;fill-opacity:1;stroke:#ffffff;stroke-width:0.264583;stroke-opacity:1"
       id="path2243-0-0-53-4-2-6-8"
       sodipodi:sides="4"
       sodipodi:cx="192.71777"
       sodipodi:cy="131.86382"
       sodipodi:r1="4.840457"
       sodipodi:r2="2.4202285"
       sodipodi:arg1="0.89605538"
       sodipodi:arg2="1.6814535"
       inkscape:flatsided="false"
       inkscape:rounded="0.03"
       inkscape:randomized="0.008"
       d="m 195.76927,135.67826 c -0.0827,0.0678 -3.23439,-1.40168 -3.34068,-1.41455 -0.10629,-0.0129 -3.41294,0.68595 -3.47941,0.60238 -0.0665,-0.0836 1.36942,-3.15252 1.38079,-3.25869 0.0114,-0.10618 -0.71546,-3.48799 -0.63225,-3.55524 0.0832,-0.0672 3.21851,1.42212 3.32494,1.43381 0.10644,0.0117 3.42797,-0.72236 3.49515,-0.63879 0.0672,0.0836 -1.41555,3.16745 -1.42755,3.27335 -0.012,0.10589 0.76167,3.48996 0.67901,3.55773 z"
       inkscape:transform-center-x="-0.0081840525"
       inkscape:transform-center-y="-0.12944179"
       transform="rotate(85.387813,-102.67309,-113.11165)"
       inkscape:export-xdpi="39.959999"
       inkscape:export-ydpi="39.959999" />
    <path
       sodipodi:type="star"
       style="fill:#118ab2;fill-opacity:1;stroke:#ffffff;stroke-width:0.264583;stroke-opacity:1"
       id="path2243-0-8-3-2-5-1"
       sodipodi:sides="4"
       sodipodi:cx="24.340153"
       sodipodi:cy="149.16856"
       sodipodi:r1="4.840457"
       sodipodi:r2="2.4202285"
       sodipodi:arg1="0.89605538"
       sodipodi:arg2="1.6814535"
       inkscape:flatsided="false"
       inkscape:rounded="0.03"
       inkscape:randomized="0.008"
       d="m 27.325604,152.91814 c -0.08384,0.0666 -3.156664,-1.32522 -3.263234,-1.3371 -0.10657,-0.0119 -3.39832,0.72888 -3.464451,0.64486 -0.06613,-0.084 1.342933,-3.20908 1.354276,-3.31504 0.01134,-0.10597 -0.720082,-3.44694 -0.63643,-3.51353 0.08365,-0.0666 3.156532,1.31783 3.263233,1.32853 0.106701,0.0107 3.506203,-0.63655 3.57259,-0.55277 0.06639,0.0838 -1.414387,3.16494 -1.427469,3.27146 -0.01308,0.10652 0.685323,3.40703 0.601485,3.47359 z"
       inkscape:transform-center-x="-0.33997582"
       inkscape:transform-center-y="-0.11304085"
       transform="rotate(83.211274,-211.27373,-138.88455)"
       inkscape:export-xdpi="39.959999"
       inkscape:export-ydpi="39.959999" />
    <path
       sodipodi:type="star"
       style="fill:#118ab2;fill-opacity:1;stroke:#ffffff;stroke-width:0.264583;stroke-opacity:1"
       id="path2243-0-8-3-3-0-9"
       sodipodi:sides="4"
       sodipodi:cx="24.340153"
       sodipodi:cy="149.16856"
       sodipodi:r1="4.840457"
       sodipodi:r2="2.4202285"
       sodipodi:arg1="0.89605538"
       sodipodi:arg2="1.6814535"
       inkscape:flatsided="false"
       inkscape:rounded="0.03"
       inkscape:randomized="0.008"
       d="m 27.325604,152.91814 c -0.08384,0.0666 -3.156664,-1.32522 -3.263234,-1.3371 -0.10657,-0.0119 -3.39832,0.72888 -3.464451,0.64486 -0.06613,-0.084 1.342933,-3.20908 1.354276,-3.31504 0.01134,-0.10597 -0.720082,-3.44694 -0.63643,-3.51353 0.08365,-0.0666 3.156532,1.31783 3.263233,1.32853 0.106701,0.0107 3.506203,-0.63655 3.57259,-0.55277 0.06639,0.0838 -1.414387,3.16494 -1.427469,3.27146 -0.01308,0.10652 0.685323,3.40703 0.601485,3.47359 z"
       inkscape:transform-center-x="-0.33997582"
       inkscape:transform-center-y="-0.11304085"
       transform="rotate(83.211274,-249.69949,-18.501902)"
       inkscape:export-xdpi="39.849998"
       inkscape:export-ydpi="39.849998" />
    <path
       sodipodi:type="star"
       style="fill:#118ab2;fill-opacity:1;stroke:#ffffff;stroke-width:0.264583;stroke-opacity:1"
       id="path2243-0-8-3-0-3-9"
       sodipodi:sides="4"
       sodipodi:cx="24.340153"
       sodipodi:cy="149.16856"
       sodipodi:r1="4.840457"
       sodipodi:r2="2.4202285"
       sodipodi:arg1="0.89605538"
       sodipodi:arg2="1.6814535"
       inkscape:flatsided="false"
       inkscape:rounded="0.03"
       inkscape:randomized="0.008"
       d="m 27.325604,152.91814 c -0.08384,0.0666 -3.156664,-1.32522 -3.263234,-1.3371 -0.10657,-0.0119 -3.39832,0.72888 -3.464451,0.64486 -0.06613,-0.084 1.342933,-3.20908 1.354276,-3.31504 0.01134,-0.10597 -0.720082,-3.44694 -0.63643,-3.51353 0.08365,-0.0666 3.156532,1.31783 3.263233,1.32853 0.106701,0.0107 3.506203,-0.63655 3.57259,-0.55277 0.06639,0.0838 -1.414387,3.16494 -1.427469,3.27146 -0.01308,0.10652 0.685323,3.40703 0.601485,3.47359 z"
       inkscape:transform-center-x="-0.33997582"
       inkscape:transform-center-y="-0.11304085"
       transform="rotate(83.211274,-165.33187,-87.592426)"
       inkscape:export-xdpi="39.959999"
       inkscape:export-ydpi="39.959999" />
    <path
       sodipodi:type="star"
       style="fill:#ffd166;fill-opacity:1;stroke:#ffffff;stroke-width:0.264583;stroke-opacity:1"
       id="path2243-0-4-9-2-4-7"
       sodipodi:sides="4"
       sodipodi:cx="32.833652"
       sodipodi:cy="195.13353"
       sodipodi:r1="4.840457"
       sodipodi:r2="2.4202285"
       sodipodi:arg1="0.89605538"
       sodipodi:arg2="1.6814535"
       inkscape:flatsided="false"
       inkscape:rounded="0.03"
       inkscape:randomized="0.008"
       d="m 35.876766,198.87728 c -0.08269,0.0679 -3.234302,-1.32426 -3.340682,-1.3371 -0.106379,-0.0128 -3.378283,0.66827 -3.444543,0.58391 -0.06626,-0.0844 1.337796,-3.16698 1.350101,-3.27334 0.0123,-0.10637 -0.683149,-3.46094 -0.60029,-3.52813 0.08286,-0.0672 3.182286,1.42817 3.288807,1.43983 0.106521,0.0117 3.433205,-0.75561 3.499319,-0.67192 0.06611,0.0837 -1.342316,3.20049 -1.354277,3.30647 -0.01196,0.10599 0.684258,3.41243 0.601565,3.48028 z"
       inkscape:transform-center-x="-0.39188944"
       inkscape:transform-center-y="-0.094462514"
       transform="rotate(85.669478,-122.71256,-40.988489)"
       inkscape:export-xdpi="39.959999"
       inkscape:export-ydpi="39.959999" />
    <path
       sodipodi:type="star"
       style="fill:#ffd166;fill-opacity:1;stroke:#ffffff;stroke-width:0.264583;stroke-opacity:1"
       id="path2243-0-4-9-5-9-6"
       sodipodi:sides="4"
       sodipodi:cx="32.833652"
       sodipodi:cy="195.13353"
       sodipodi:r1="4.840457"
       sodipodi:r2="2.4202285"
       sodipodi:arg1="0.89605538"
       sodipodi:arg2="1.6814535"
       inkscape:flatsided="false"
       inkscape:rounded="0.03"
       inkscape:randomized="0.008"
       d="m 35.876766,198.87728 c -0.08269,0.0679 -3.234302,-1.32426 -3.340682,-1.3371 -0.106379,-0.0128 -3.378283,0.66827 -3.444543,0.58391 -0.06626,-0.0844 1.337796,-3.16698 1.350101,-3.27334 0.0123,-0.10637 -0.683149,-3.46094 -0.60029,-3.52813 0.08286,-0.0672 3.182286,1.42817 3.288807,1.43983 0.106521,0.0117 3.433205,-0.75561 3.499319,-0.67192 0.06611,0.0837 -1.342316,3.20049 -1.354277,3.30647 -0.01196,0.10599 0.684258,3.41243 0.601565,3.48028 z"
       inkscape:transform-center-x="-0.39188944"
       inkscape:transform-center-y="-0.094462514"
       transform="rotate(85.669478,-193.04857,-80.955331)"
       inkscape:export-xdpi="39.959999"
       inkscape:export-ydpi="39.959999" />
    <path
       sodipodi:type="star"
       style="fill:#ffd166;fill-opacity:1;stroke:#ffffff;stroke-width:0.264583;stroke-opacity:1"
       id="path2243-0-4-9-4-4-2"
       sodipodi:sides="4"
       sodipodi:cx="32.833652"
       sodipodi:cy="195.13353"
       sodipodi:r1="4.840457"
       sodipodi:r2="2.4202285"
       sodipodi:arg1="0.89605538"
       sodipodi:arg2="1.6814535"
       inkscape:flatsided="false"
       inkscape:rounded="0.03"
       inkscape:randomized="0.008"
       d="m 35.876766,198.87728 c -0.08269,0.0679 -3.234302,-1.32426 -3.340682,-1.3371 -0.106379,-0.0128 -3.378283,0.66827 -3.444543,0.58391 -0.06626,-0.0844 1.337796,-3.16698 1.350101,-3.27334 0.0123,-0.10637 -0.683149,-3.46094 -0.60029,-3.52813 0.08286,-0.0672 3.182286,1.42817 3.288807,1.43983 0.106521,0.0117 3.433205,-0.75561 3.499319,-0.67192 0.06611,0.0837 -1.342316,3.20049 -1.354277,3.30647 -0.01196,0.10599 0.684258,3.41243 0.601565,3.48028 z"
       inkscape:transform-center-x="-0.39188944"
       inkscape:transform-center-y="-0.094462514"
       transform="rotate(85.669478,-163.65782,-14.63528)"
       inkscape:export-xdpi="39.959999"
       inkscape:export-ydpi="39.959999" />
    <path
       sodipodi:type="star"
       style="fill:#06d6a0;fill-opacity:1;stroke:#ffffff;stroke-width:0.264583;stroke-opacity:1"
       id="path2243-0-06-3-0-2-8"
       sodipodi:sides="4"
       sodipodi:cx="147.05733"
       sodipodi:cy="204.14471"
       sodipodi:r1="4.840457"
       sodipodi:r2="2.4202285"
       sodipodi:arg1="0.89605538"
       sodipodi:arg2="1.6814535"
       inkscape:flatsided="false"
       inkscape:rounded="0.03"
       inkscape:randomized="0.008"
       d="m 150.04336,207.93862 c -0.0825,0.0675 -3.12222,-1.35223 -3.22837,-1.36415 -0.10615,-0.0119 -3.49452,0.65004 -3.56103,0.56663 -0.0665,-0.0834 1.3987,-3.13754 1.41173,-3.24363 0.013,-0.10608 -0.68165,-3.44944 -0.59731,-3.51529 0.0844,-0.0658 3.11756,1.32528 3.2242,1.33698 0.10664,0.0117 3.50987,-0.69503 3.57676,-0.61161 0.0669,0.0834 -1.41873,3.20855 -1.43172,3.31504 -0.013,0.10649 0.68824,3.44855 0.60574,3.51603 z"
       inkscape:transform-center-x="-0.39789627"
       inkscape:transform-center-y="-0.14026606"
       transform="rotate(82.313601,-174.24638,-135.55594)"
       inkscape:export-xdpi="39.959999"
       inkscape:export-ydpi="39.959999" />
    <path
       sodipodi:type="star"
       style="fill:#06d6a0;fill-opacity:1;stroke:#ffffff;stroke-width:0.264583;stroke-opacity:1"
       id="path2243-0-06-3-9-8-0"
       sodipodi:sides="4"
       sodipodi:cx="147.05733"
       sodipodi:cy="204.14471"
       sodipodi:r1="4.840457"
       sodipodi:r2="2.4202285"
       sodipodi:arg1="0.89605538"
       sodipodi:arg2="1.6814535"
       inkscape:flatsided="false"
       inkscape:rounded="0.03"
       inkscape:randomized="0.008"
       d="m 150.04336,207.93862 c -0.0825,0.0675 -3.12222,-1.35223 -3.22837,-1.36415 -0.10615,-0.0119 -3.49452,0.65004 -3.56103,0.56663 -0.0665,-0.0834 1.3987,-3.13754 1.41173,-3.24363 0.013,-0.10608 -0.68165,-3.44944 -0.59731,-3.51529 0.0844,-0.0658 3.11756,1.32528 3.2242,1.33698 0.10664,0.0117 3.50987,-0.69503 3.57676,-0.61161 0.0669,0.0834 -1.41873,3.20855 -1.43172,3.31504 -0.013,0.10649 0.68824,3.44855 0.60574,3.51603 z"
       inkscape:transform-center-x="-0.39789627"
       inkscape:transform-center-y="-0.14026606"
       transform="rotate(82.313601,-89.969215,-38.988202)"
       inkscape:export-xdpi="39.959999"
       inkscape:export-ydpi="39.959999" />
    <path
       sodipodi:type="star"
       style="fill:#06d6a0;fill-opacity:1;stroke:#ffffff;stroke-width:0.264583;stroke-opacity:1"
       id="path2243-0-06-3-8-6-6"
       sodipodi:sides="4"
       sodipodi:cx="147.05733"
       sodipodi:cy="204.14471"
       sodipodi:r1="4.840457"
       sodipodi:r2="2.4202285"
       sodipodi:arg1="0.89605538"
       sodipodi:arg2="1.6814535"
       inkscape:flatsided="false"
       inkscape:rounded="0.03"
       inkscape:randomized="0.008"
       d="m 150.04336,207.93862 c -0.0825,0.0675 -3.12222,-1.35223 -3.22837,-1.36415 -0.10615,-0.0119 -3.49452,0.65004 -3.56103,0.56663 -0.0665,-0.0834 1.3987,-3.13754 1.41173,-3.24363 0.013,-0.10608 -0.68165,-3.44944 -0.59731,-3.51529 0.0844,-0.0658 3.11756,1.32528 3.2242,1.33698 0.10664,0.0117 3.50987,-0.69503 3.57676,-0.61161 0.0669,0.0834 -1.41873,3.20855 -1.43172,3.31504 -0.013,0.10649 0.68824,3.44855 0.60574,3.51603 z"
       inkscape:transform-center-x="-0.39789627"
       inkscape:transform-center-y="-0.14026606"
       transform="rotate(82.313601,-112.43591,-135.03498)"
       inkscape:export-xdpi="39.959999"
       inkscape:export-ydpi="39.959999" />
    <path
       sodipodi:type="star"
       style="fill:#ef476f;fill-opacity:1;stroke:#ffffff;stroke-width:0.264583;stroke-opacity:1"
       id="path2243-0-0-8-1-6-8-5-4-0"
       sodipodi:sides="4"
       sodipodi:cx="41.97776"
       sodipodi:cy="111.55133"
       sodipodi:r1="4.840457"
       sodipodi:r2="2.4202285"
       sodipodi:arg1="0.89605538"
       sodipodi:arg2="1.6814535"
       inkscape:flatsided="false"
       inkscape:rounded="0.03"
       inkscape:randomized="0.008"
       d="m 45.033337,115.30555 c -0.08383,0.0667 -3.199454,-1.36107 -3.305815,-1.37272 -0.106361,-0.0116 -3.43192,0.75455 -3.499319,0.67191 -0.0674,-0.0826 1.344234,-3.2475 1.355553,-3.35431 0.01132,-0.10682 -0.684828,-3.40514 -0.601564,-3.47171 0.08326,-0.0666 3.152579,1.35897 3.259058,1.37023 0.106479,0.0113 3.475855,-0.72954 3.541898,-0.64487 0.06604,0.0847 -1.41665,3.24463 -1.427548,3.35079 -0.0109,0.10617 0.761569,3.384 0.677737,3.45068 z"
       inkscape:transform-center-x="0.31936049"
       inkscape:transform-center-y="-0.40586331"
       transform="rotate(81.604484,-204.84215,-158.35703)"
       inkscape:export-xdpi="39.849998"
       inkscape:export-ydpi="39.849998" />
    <path
       sodipodi:type="star"
       style="fill:#ef476f;fill-opacity:1;stroke:#ffffff;stroke-width:0.264583;stroke-opacity:1"
       id="path2243-0-0-8-1-6-8-4-6-8"
       sodipodi:sides="4"
       sodipodi:cx="41.97776"
       sodipodi:cy="111.55133"
       sodipodi:r1="4.840457"
       sodipodi:r2="2.4202285"
       sodipodi:arg1="0.89605538"
       sodipodi:arg2="1.6814535"
       inkscape:flatsided="false"
       inkscape:rounded="0.03"
       inkscape:randomized="0.008"
       d="m 45.033337,115.30555 c -0.08383,0.0667 -3.199454,-1.36107 -3.305815,-1.37272 -0.106361,-0.0116 -3.43192,0.75455 -3.499319,0.67191 -0.0674,-0.0826 1.344234,-3.2475 1.355553,-3.35431 0.01132,-0.10682 -0.684828,-3.40514 -0.601564,-3.47171 0.08326,-0.0666 3.152579,1.35897 3.259058,1.37023 0.106479,0.0113 3.475855,-0.72954 3.541898,-0.64487 0.06604,0.0847 -1.41665,3.24463 -1.427548,3.35079 -0.0109,0.10617 0.761569,3.384 0.677737,3.45068 z"
       inkscape:transform-center-x="0.31936049"
       inkscape:transform-center-y="-0.40586331"
       transform="rotate(81.604484,-249.4479,-111.65371)"
       inkscape:export-xdpi="39.959999"
       inkscape:export-ydpi="39.959999" />
    <path
       sodipodi:type="star"
       style="fill:#ef476f;fill-opacity:1;stroke:#ffffff;stroke-width:0.264583;stroke-opacity:1"
       id="path2243-0-0-8-1-6-8-1-3-7"
       sodipodi:sides="4"
       sodipodi:cx="41.97776"
       sodipodi:cy="111.55133"
       sodipodi:r1="4.840457"
       sodipodi:r2="2.4202285"
       sodipodi:arg1="0.89605538"
       sodipodi:arg2="1.6814535"
       inkscape:flatsided="false"
       inkscape:rounded="0.03"
       inkscape:randomized="0.008"
       d="m 45.033337,115.30555 c -0.08383,0.0667 -3.199454,-1.36107 -3.305815,-1.37272 -0.106361,-0.0116 -3.43192,0.75455 -3.499319,0.67191 -0.0674,-0.0826 1.344234,-3.2475 1.355553,-3.35431 0.01132,-0.10682 -0.684828,-3.40514 -0.601564,-3.47171 0.08326,-0.0666 3.152579,1.35897 3.259058,1.37023 0.106479,0.0113 3.475855,-0.72954 3.541898,-0.64487 0.06604,0.0847 -1.41665,3.24463 -1.427548,3.35079 -0.0109,0.10617 0.761569,3.384 0.677737,3.45068 z"
       inkscape:transform-center-x="0.31936049"
       inkscape:transform-center-y="-0.40586331"
       transform="rotate(81.604484,-171.47824,-72.996719)"
       inkscape:export-xdpi="39.959999"
       inkscape:export-ydpi="39.959999" />
    <path
       sodipodi:type="star"
       style="opacity:0.999;fill:#d31027;fill-opacity:1;stroke:#f2f2f2;stroke-width:2.5;stroke-linecap:round;stroke-miterlimit:4;stroke-dasharray:none;stroke-opacity:1;stroke-linejoin:bevel"
       id="path1128-56-2-1-2-7-5"
       sodipodi:sides="6"
       sodipodi:cx="-353.6521"
       sodipodi:cy="227.7218"
       sodipodi:r1="17.346987"
       sodipodi:r2="15.022929"
       sodipodi:arg1="1.5707963"
       sodipodi:arg2="2.0943951"
       inkscape:flatsided="true"
       inkscape:rounded="-3.469447e-18"
       inkscape:randomized="0"
       d="m -353.6521,245.06879 -15.02293,-8.67349 0,-17.34699 15.02293,-8.6735 15.02293,8.6735 0,17.34698 z"
       inkscape:transform-center-x="-2.400292e-05"
       inkscape:transform-center-y="-3.7888445e-06"
       inkscape:export-xdpi="39.959999"
       inkscape:export-ydpi="39.959999" />
    <path
       sodipodi:type="star"
       style="opacity:0.999;fill:#d31027;fill-opacity:1;stroke:#f2f2f2;stroke-width:2.5;stroke-linecap:round;stroke-miterlimit:4;stroke-dasharray:none;stroke-opacity:1;stroke-linejoin:bevel"
       id="path1128-56-2-1-1-7-9"
       sodipodi:sides="6"
       sodipodi:cx="-456.11749"
       sodipodi:cy="205.09772"
       sodipodi:r1="17.346987"
       sodipodi:r2="15.022929"
       sodipodi:arg1="1.5707963"
       sodipodi:arg2="2.0943951"
       inkscape:flatsided="true"
       inkscape:rounded="-3.469447e-18"
       inkscape:randomized="0"
       d="m -456.11749,222.4447 -15.02293,-8.67349 0,-17.34699 15.02293,-8.67349 15.02293,8.67349 0,17.34699 z"
       inkscape:transform-center-x="-1.8983555e-05"
       inkscape:transform-center-y="-9.5091632e-06"
       inkscape:export-xdpi="39.959999"
       inkscape:export-ydpi="39.959999" />
    <path
       sodipodi:type="star"
       style="opacity:0.999;fill:#d31027;fill-opacity:1;stroke:#f2f2f2;stroke-width:2.5;stroke-linecap:round;stroke-miterlimit:4;stroke-dasharray:none;stroke-opacity:1;stroke-linejoin:bevel"
       id="path1128-56-2-1-0-0-0"
       sodipodi:sides="6"
       sodipodi:cx="-405.263"
       sodipodi:cy="123.28616"
       sodipodi:r1="17.346987"
       sodipodi:r2="15.022929"
       sodipodi:arg1="1.5707963"
       sodipodi:arg2="2.0943951"
       inkscape:flatsided="true"
       inkscape:rounded="-3.469447e-18"
       inkscape:randomized="0"
       d="m -405.263,140.63315 -15.02293,-8.67349 0,-17.34699 15.02293,-8.67349 15.02293,8.67349 0,17.34699 z"
       inkscape:transform-center-x="-1.41977e-05"
       inkscape:transform-center-y="-1.4234989e-06"
       inkscape:export-xdpi="39.959999"
       inkscape:export-ydpi="39.959999" />
  </g>
</svg>
